<?xml version="1.0" encoding="utf-8" standalone="no"?>
<!DOCTYPE svg PUBLIC "-//W3C//DTD SVG 1.1//EN"
  "http://www.w3.org/Graphics/SVG/1.1/DTD/svg11.dtd">
<svg xmlns:xlink="http://www.w3.org/1999/xlink" width="640.987957pt" height="347.722375pt" viewBox="0 0 640.987957 347.722375" xmlns="http://www.w3.org/2000/svg" version="1.1">
 <metadata>
  <rdf:RDF xmlns:dc="http://purl.org/dc/elements/1.1/" xmlns:cc="http://creativecommons.org/ns#" xmlns:rdf="http://www.w3.org/1999/02/22-rdf-syntax-ns#">
   <cc:Work>
    <dc:type rdf:resource="http://purl.org/dc/dcmitype/StillImage"/>
    <dc:date>2026-05-02T22:29:23.120200</dc:date>
    <dc:format>image/svg+xml</dc:format>
    <dc:creator>
     <cc:Agent>
      <dc:title>Matplotlib v3.10.9, https://matplotlib.org/</dc:title>
     </cc:Agent>
    </dc:creator>
   </cc:Work>
  </rdf:RDF>
 </metadata>
 <defs>
  <style type="text/css">*{stroke-linejoin: round; stroke-linecap: butt}</style>
 </defs>
 <g id="figure_1">
  <g id="patch_1">
   <path d="M 0 347.722375 
L 640.987957 347.722375 
L 640.987957 0 
L 0 0 
z
" style="fill: #ffffff"/>
  </g>
  <g id="axes_1">
   <g id="patch_2">
    <path d="M 40.603125 310.166125 
L 573.779125 310.166125 
L 573.779125 22.318125 
L 40.603125 22.318125 
z
" style="fill: #ffffff"/>
   </g>
   <g id="matplotlib.axis_1">
    <g id="xtick_1">
     <g id="line2d_1">
      <path d="M 73.020864 310.166125 
L 73.020864 22.318125 
" clip-path="url(#p1e7803a728)" style="fill: none; stroke: #b0b0b0; stroke-opacity: 0.3; stroke-width: 0.8; stroke-linecap: square"/>
     </g>
     <g id="line2d_2">
      <defs>
       <path id="ma69c222b03" d="M 0 0 
L 0 3.5 
" style="stroke: #000000; stroke-width: 0.8"/>
      </defs>
      <g>
       <use xlink:href="#ma69c222b03" x="73.020864" y="310.166125" style="stroke: #000000; stroke-width: 0.8"/>
      </g>
     </g>
     <g id="text_1">
      <!-- $\mathdefault{10^{-4}}$ -->
      <g transform="translate(61.270864 324.764563) scale(0.1 -0.1)">
       <defs>
        <path id="DejaVuSans-31" d="M 794 531 
L 1825 531 
L 1825 4091 
L 703 3866 
L 703 4441 
L 1819 4666 
L 2450 4666 
L 2450 531 
L 3481 531 
L 3481 0 
L 794 0 
L 794 531 
z
" transform="scale(0.015625)"/>
        <path id="DejaVuSans-30" d="M 2034 4250 
Q 1547 4250 1301 3770 
Q 1056 3291 1056 2328 
Q 1056 1369 1301 889 
Q 1547 409 2034 409 
Q 2525 409 2770 889 
Q 3016 1369 3016 2328 
Q 3016 3291 2770 3770 
Q 2525 4250 2034 4250 
z
M 2034 4750 
Q 2819 4750 3233 4129 
Q 3647 3509 3647 2328 
Q 3647 1150 3233 529 
Q 2819 -91 2034 -91 
Q 1250 -91 836 529 
Q 422 1150 422 2328 
Q 422 3509 836 4129 
Q 1250 4750 2034 4750 
z
" transform="scale(0.015625)"/>
        <path id="DejaVuSans-2212" d="M 678 2272 
L 4684 2272 
L 4684 1741 
L 678 1741 
L 678 2272 
z
" transform="scale(0.015625)"/>
        <path id="DejaVuSans-34" d="M 2419 4116 
L 825 1625 
L 2419 1625 
L 2419 4116 
z
M 2253 4666 
L 3047 4666 
L 3047 1625 
L 3713 1625 
L 3713 1100 
L 3047 1100 
L 3047 0 
L 2419 0 
L 2419 1100 
L 313 1100 
L 313 1709 
L 2253 4666 
z
" transform="scale(0.015625)"/>
       </defs>
       <use xlink:href="#DejaVuSans-31" transform="translate(0 0.684375)"/>
       <use xlink:href="#DejaVuSans-30" transform="translate(63.623047 0.684375)"/>
       <use xlink:href="#DejaVuSans-2212" transform="translate(128.203125 38.965625) scale(0.7)"/>
       <use xlink:href="#DejaVuSans-34" transform="translate(186.855469 38.965625) scale(0.7)"/>
      </g>
     </g>
    </g>
    <g id="xtick_2">
     <g id="line2d_3">
      <path d="M 166.238653 310.166125 
L 166.238653 22.318125 
" clip-path="url(#p1e7803a728)" style="fill: none; stroke: #b0b0b0; stroke-opacity: 0.3; stroke-width: 0.8; stroke-linecap: square"/>
     </g>
     <g id="line2d_4">
      <g>
       <use xlink:href="#ma69c222b03" x="166.238653" y="310.166125" style="stroke: #000000; stroke-width: 0.8"/>
      </g>
     </g>
     <g id="text_2">
      <!-- $\mathdefault{10^{-3}}$ -->
      <g transform="translate(154.488653 324.764563) scale(0.1 -0.1)">
       <defs>
        <path id="DejaVuSans-33" d="M 2597 2516 
Q 3050 2419 3304 2112 
Q 3559 1806 3559 1356 
Q 3559 666 3084 287 
Q 2609 -91 1734 -91 
Q 1441 -91 1130 -33 
Q 819 25 488 141 
L 488 750 
Q 750 597 1062 519 
Q 1375 441 1716 441 
Q 2309 441 2620 675 
Q 2931 909 2931 1356 
Q 2931 1769 2642 2001 
Q 2353 2234 1838 2234 
L 1294 2234 
L 1294 2753 
L 1863 2753 
Q 2328 2753 2575 2939 
Q 2822 3125 2822 3475 
Q 2822 3834 2567 4026 
Q 2313 4219 1838 4219 
Q 1578 4219 1281 4162 
Q 984 4106 628 3988 
L 628 4550 
Q 988 4650 1302 4700 
Q 1616 4750 1894 4750 
Q 2613 4750 3031 4423 
Q 3450 4097 3450 3541 
Q 3450 3153 3228 2886 
Q 3006 2619 2597 2516 
z
" transform="scale(0.015625)"/>
       </defs>
       <use xlink:href="#DejaVuSans-31" transform="translate(0 0.765625)"/>
       <use xlink:href="#DejaVuSans-30" transform="translate(63.623047 0.765625)"/>
       <use xlink:href="#DejaVuSans-2212" transform="translate(128.203125 39.046875) scale(0.7)"/>
       <use xlink:href="#DejaVuSans-33" transform="translate(186.855469 39.046875) scale(0.7)"/>
      </g>
     </g>
    </g>
    <g id="xtick_3">
     <g id="line2d_5">
      <path d="M 259.456442 310.166125 
L 259.456442 22.318125 
" clip-path="url(#p1e7803a728)" style="fill: none; stroke: #b0b0b0; stroke-opacity: 0.3; stroke-width: 0.8; stroke-linecap: square"/>
     </g>
     <g id="line2d_6">
      <g>
       <use xlink:href="#ma69c222b03" x="259.456442" y="310.166125" style="stroke: #000000; stroke-width: 0.8"/>
      </g>
     </g>
     <g id="text_3">
      <!-- $\mathdefault{10^{-2}}$ -->
      <g transform="translate(247.706442 324.764563) scale(0.1 -0.1)">
       <defs>
        <path id="DejaVuSans-32" d="M 1228 531 
L 3431 531 
L 3431 0 
L 469 0 
L 469 531 
Q 828 903 1448 1529 
Q 2069 2156 2228 2338 
Q 2531 2678 2651 2914 
Q 2772 3150 2772 3378 
Q 2772 3750 2511 3984 
Q 2250 4219 1831 4219 
Q 1534 4219 1204 4116 
Q 875 4013 500 3803 
L 500 4441 
Q 881 4594 1212 4672 
Q 1544 4750 1819 4750 
Q 2544 4750 2975 4387 
Q 3406 4025 3406 3419 
Q 3406 3131 3298 2873 
Q 3191 2616 2906 2266 
Q 2828 2175 2409 1742 
Q 1991 1309 1228 531 
z
" transform="scale(0.015625)"/>
       </defs>
       <use xlink:href="#DejaVuSans-31" transform="translate(0 0.765625)"/>
       <use xlink:href="#DejaVuSans-30" transform="translate(63.623047 0.765625)"/>
       <use xlink:href="#DejaVuSans-2212" transform="translate(128.203125 39.046875) scale(0.7)"/>
       <use xlink:href="#DejaVuSans-32" transform="translate(186.855469 39.046875) scale(0.7)"/>
      </g>
     </g>
    </g>
    <g id="xtick_4">
     <g id="line2d_7">
      <path d="M 352.674232 310.166125 
L 352.674232 22.318125 
" clip-path="url(#p1e7803a728)" style="fill: none; stroke: #b0b0b0; stroke-opacity: 0.3; stroke-width: 0.8; stroke-linecap: square"/>
     </g>
     <g id="line2d_8">
      <g>
       <use xlink:href="#ma69c222b03" x="352.674232" y="310.166125" style="stroke: #000000; stroke-width: 0.8"/>
      </g>
     </g>
     <g id="text_4">
      <!-- $\mathdefault{10^{-1}}$ -->
      <g transform="translate(340.924232 324.764563) scale(0.1 -0.1)">
       <use xlink:href="#DejaVuSans-31" transform="translate(0 0.684375)"/>
       <use xlink:href="#DejaVuSans-30" transform="translate(63.623047 0.684375)"/>
       <use xlink:href="#DejaVuSans-2212" transform="translate(128.203125 38.965625) scale(0.7)"/>
       <use xlink:href="#DejaVuSans-31" transform="translate(186.855469 38.965625) scale(0.7)"/>
      </g>
     </g>
    </g>
    <g id="xtick_5">
     <g id="line2d_9">
      <path d="M 445.892021 310.166125 
L 445.892021 22.318125 
" clip-path="url(#p1e7803a728)" style="fill: none; stroke: #b0b0b0; stroke-opacity: 0.3; stroke-width: 0.8; stroke-linecap: square"/>
     </g>
     <g id="line2d_10">
      <g>
       <use xlink:href="#ma69c222b03" x="445.892021" y="310.166125" style="stroke: #000000; stroke-width: 0.8"/>
      </g>
     </g>
     <g id="text_5">
      <!-- $\mathdefault{10^{0}}$ -->
      <g transform="translate(437.092021 324.764563) scale(0.1 -0.1)">
       <use xlink:href="#DejaVuSans-31" transform="translate(0 0.765625)"/>
       <use xlink:href="#DejaVuSans-30" transform="translate(63.623047 0.765625)"/>
       <use xlink:href="#DejaVuSans-30" transform="translate(128.203125 39.046875) scale(0.7)"/>
      </g>
     </g>
    </g>
    <g id="xtick_6">
     <g id="line2d_11">
      <path d="M 539.10981 310.166125 
L 539.10981 22.318125 
" clip-path="url(#p1e7803a728)" style="fill: none; stroke: #b0b0b0; stroke-opacity: 0.3; stroke-width: 0.8; stroke-linecap: square"/>
     </g>
     <g id="line2d_12">
      <g>
       <use xlink:href="#ma69c222b03" x="539.10981" y="310.166125" style="stroke: #000000; stroke-width: 0.8"/>
      </g>
     </g>
     <g id="text_6">
      <!-- $\mathdefault{10^{1}}$ -->
      <g transform="translate(530.30981 324.764563) scale(0.1 -0.1)">
       <use xlink:href="#DejaVuSans-31" transform="translate(0 0.684375)"/>
       <use xlink:href="#DejaVuSans-30" transform="translate(63.623047 0.684375)"/>
       <use xlink:href="#DejaVuSans-31" transform="translate(128.203125 38.965625) scale(0.7)"/>
      </g>
     </g>
    </g>
    <g id="xtick_7">
     <g id="line2d_13">
      <defs>
       <path id="m4a6d52728c" d="M 0 0 
L 0 2 
" style="stroke: #000000; stroke-width: 0.6"/>
      </defs>
      <g>
       <use xlink:href="#m4a6d52728c" x="44.959513" y="310.166125" style="stroke: #000000; stroke-width: 0.6"/>
      </g>
     </g>
    </g>
    <g id="xtick_8">
     <g id="line2d_14">
      <g>
       <use xlink:href="#m4a6d52728c" x="52.340614" y="310.166125" style="stroke: #000000; stroke-width: 0.6"/>
      </g>
     </g>
    </g>
    <g id="xtick_9">
     <g id="line2d_15">
      <g>
       <use xlink:href="#m4a6d52728c" x="58.581245" y="310.166125" style="stroke: #000000; stroke-width: 0.6"/>
      </g>
     </g>
    </g>
    <g id="xtick_10">
     <g id="line2d_16">
      <g>
       <use xlink:href="#m4a6d52728c" x="63.987126" y="310.166125" style="stroke: #000000; stroke-width: 0.6"/>
      </g>
     </g>
    </g>
    <g id="xtick_11">
     <g id="line2d_17">
      <g>
       <use xlink:href="#m4a6d52728c" x="68.755451" y="310.166125" style="stroke: #000000; stroke-width: 0.6"/>
      </g>
     </g>
    </g>
    <g id="xtick_12">
     <g id="line2d_18">
      <g>
       <use xlink:href="#m4a6d52728c" x="101.082214" y="310.166125" style="stroke: #000000; stroke-width: 0.6"/>
      </g>
     </g>
    </g>
    <g id="xtick_13">
     <g id="line2d_19">
      <g>
       <use xlink:href="#m4a6d52728c" x="117.497052" y="310.166125" style="stroke: #000000; stroke-width: 0.6"/>
      </g>
     </g>
    </g>
    <g id="xtick_14">
     <g id="line2d_20">
      <g>
       <use xlink:href="#m4a6d52728c" x="129.143565" y="310.166125" style="stroke: #000000; stroke-width: 0.6"/>
      </g>
     </g>
    </g>
    <g id="xtick_15">
     <g id="line2d_21">
      <g>
       <use xlink:href="#m4a6d52728c" x="138.177302" y="310.166125" style="stroke: #000000; stroke-width: 0.6"/>
      </g>
     </g>
    </g>
    <g id="xtick_16">
     <g id="line2d_22">
      <g>
       <use xlink:href="#m4a6d52728c" x="145.558403" y="310.166125" style="stroke: #000000; stroke-width: 0.6"/>
      </g>
     </g>
    </g>
    <g id="xtick_17">
     <g id="line2d_23">
      <g>
       <use xlink:href="#m4a6d52728c" x="151.799035" y="310.166125" style="stroke: #000000; stroke-width: 0.6"/>
      </g>
     </g>
    </g>
    <g id="xtick_18">
     <g id="line2d_24">
      <g>
       <use xlink:href="#m4a6d52728c" x="157.204916" y="310.166125" style="stroke: #000000; stroke-width: 0.6"/>
      </g>
     </g>
    </g>
    <g id="xtick_19">
     <g id="line2d_25">
      <g>
       <use xlink:href="#m4a6d52728c" x="161.973241" y="310.166125" style="stroke: #000000; stroke-width: 0.6"/>
      </g>
     </g>
    </g>
    <g id="xtick_20">
     <g id="line2d_26">
      <g>
       <use xlink:href="#m4a6d52728c" x="194.300004" y="310.166125" style="stroke: #000000; stroke-width: 0.6"/>
      </g>
     </g>
    </g>
    <g id="xtick_21">
     <g id="line2d_27">
      <g>
       <use xlink:href="#m4a6d52728c" x="210.714842" y="310.166125" style="stroke: #000000; stroke-width: 0.6"/>
      </g>
     </g>
    </g>
    <g id="xtick_22">
     <g id="line2d_28">
      <g>
       <use xlink:href="#m4a6d52728c" x="222.361354" y="310.166125" style="stroke: #000000; stroke-width: 0.6"/>
      </g>
     </g>
    </g>
    <g id="xtick_23">
     <g id="line2d_29">
      <g>
       <use xlink:href="#m4a6d52728c" x="231.395092" y="310.166125" style="stroke: #000000; stroke-width: 0.6"/>
      </g>
     </g>
    </g>
    <g id="xtick_24">
     <g id="line2d_30">
      <g>
       <use xlink:href="#m4a6d52728c" x="238.776192" y="310.166125" style="stroke: #000000; stroke-width: 0.6"/>
      </g>
     </g>
    </g>
    <g id="xtick_25">
     <g id="line2d_31">
      <g>
       <use xlink:href="#m4a6d52728c" x="245.016824" y="310.166125" style="stroke: #000000; stroke-width: 0.6"/>
      </g>
     </g>
    </g>
    <g id="xtick_26">
     <g id="line2d_32">
      <g>
       <use xlink:href="#m4a6d52728c" x="250.422705" y="310.166125" style="stroke: #000000; stroke-width: 0.6"/>
      </g>
     </g>
    </g>
    <g id="xtick_27">
     <g id="line2d_33">
      <g>
       <use xlink:href="#m4a6d52728c" x="255.19103" y="310.166125" style="stroke: #000000; stroke-width: 0.6"/>
      </g>
     </g>
    </g>
    <g id="xtick_28">
     <g id="line2d_34">
      <g>
       <use xlink:href="#m4a6d52728c" x="287.517793" y="310.166125" style="stroke: #000000; stroke-width: 0.6"/>
      </g>
     </g>
    </g>
    <g id="xtick_29">
     <g id="line2d_35">
      <g>
       <use xlink:href="#m4a6d52728c" x="303.932631" y="310.166125" style="stroke: #000000; stroke-width: 0.6"/>
      </g>
     </g>
    </g>
    <g id="xtick_30">
     <g id="line2d_36">
      <g>
       <use xlink:href="#m4a6d52728c" x="315.579144" y="310.166125" style="stroke: #000000; stroke-width: 0.6"/>
      </g>
     </g>
    </g>
    <g id="xtick_31">
     <g id="line2d_37">
      <g>
       <use xlink:href="#m4a6d52728c" x="324.612881" y="310.166125" style="stroke: #000000; stroke-width: 0.6"/>
      </g>
     </g>
    </g>
    <g id="xtick_32">
     <g id="line2d_38">
      <g>
       <use xlink:href="#m4a6d52728c" x="331.993982" y="310.166125" style="stroke: #000000; stroke-width: 0.6"/>
      </g>
     </g>
    </g>
    <g id="xtick_33">
     <g id="line2d_39">
      <g>
       <use xlink:href="#m4a6d52728c" x="338.234613" y="310.166125" style="stroke: #000000; stroke-width: 0.6"/>
      </g>
     </g>
    </g>
    <g id="xtick_34">
     <g id="line2d_40">
      <g>
       <use xlink:href="#m4a6d52728c" x="343.640495" y="310.166125" style="stroke: #000000; stroke-width: 0.6"/>
      </g>
     </g>
    </g>
    <g id="xtick_35">
     <g id="line2d_41">
      <g>
       <use xlink:href="#m4a6d52728c" x="348.40882" y="310.166125" style="stroke: #000000; stroke-width: 0.6"/>
      </g>
     </g>
    </g>
    <g id="xtick_36">
     <g id="line2d_42">
      <g>
       <use xlink:href="#m4a6d52728c" x="380.735582" y="310.166125" style="stroke: #000000; stroke-width: 0.6"/>
      </g>
     </g>
    </g>
    <g id="xtick_37">
     <g id="line2d_43">
      <g>
       <use xlink:href="#m4a6d52728c" x="397.15042" y="310.166125" style="stroke: #000000; stroke-width: 0.6"/>
      </g>
     </g>
    </g>
    <g id="xtick_38">
     <g id="line2d_44">
      <g>
       <use xlink:href="#m4a6d52728c" x="408.796933" y="310.166125" style="stroke: #000000; stroke-width: 0.6"/>
      </g>
     </g>
    </g>
    <g id="xtick_39">
     <g id="line2d_45">
      <g>
       <use xlink:href="#m4a6d52728c" x="417.83067" y="310.166125" style="stroke: #000000; stroke-width: 0.6"/>
      </g>
     </g>
    </g>
    <g id="xtick_40">
     <g id="line2d_46">
      <g>
       <use xlink:href="#m4a6d52728c" x="425.211771" y="310.166125" style="stroke: #000000; stroke-width: 0.6"/>
      </g>
     </g>
    </g>
    <g id="xtick_41">
     <g id="line2d_47">
      <g>
       <use xlink:href="#m4a6d52728c" x="431.452403" y="310.166125" style="stroke: #000000; stroke-width: 0.6"/>
      </g>
     </g>
    </g>
    <g id="xtick_42">
     <g id="line2d_48">
      <g>
       <use xlink:href="#m4a6d52728c" x="436.858284" y="310.166125" style="stroke: #000000; stroke-width: 0.6"/>
      </g>
     </g>
    </g>
    <g id="xtick_43">
     <g id="line2d_49">
      <g>
       <use xlink:href="#m4a6d52728c" x="441.626609" y="310.166125" style="stroke: #000000; stroke-width: 0.6"/>
      </g>
     </g>
    </g>
    <g id="xtick_44">
     <g id="line2d_50">
      <g>
       <use xlink:href="#m4a6d52728c" x="473.953372" y="310.166125" style="stroke: #000000; stroke-width: 0.6"/>
      </g>
     </g>
    </g>
    <g id="xtick_45">
     <g id="line2d_51">
      <g>
       <use xlink:href="#m4a6d52728c" x="490.36821" y="310.166125" style="stroke: #000000; stroke-width: 0.6"/>
      </g>
     </g>
    </g>
    <g id="xtick_46">
     <g id="line2d_52">
      <g>
       <use xlink:href="#m4a6d52728c" x="502.014723" y="310.166125" style="stroke: #000000; stroke-width: 0.6"/>
      </g>
     </g>
    </g>
    <g id="xtick_47">
     <g id="line2d_53">
      <g>
       <use xlink:href="#m4a6d52728c" x="511.04846" y="310.166125" style="stroke: #000000; stroke-width: 0.6"/>
      </g>
     </g>
    </g>
    <g id="xtick_48">
     <g id="line2d_54">
      <g>
       <use xlink:href="#m4a6d52728c" x="518.42956" y="310.166125" style="stroke: #000000; stroke-width: 0.6"/>
      </g>
     </g>
    </g>
    <g id="xtick_49">
     <g id="line2d_55">
      <g>
       <use xlink:href="#m4a6d52728c" x="524.670192" y="310.166125" style="stroke: #000000; stroke-width: 0.6"/>
      </g>
     </g>
    </g>
    <g id="xtick_50">
     <g id="line2d_56">
      <g>
       <use xlink:href="#m4a6d52728c" x="530.076073" y="310.166125" style="stroke: #000000; stroke-width: 0.6"/>
      </g>
     </g>
    </g>
    <g id="xtick_51">
     <g id="line2d_57">
      <g>
       <use xlink:href="#m4a6d52728c" x="534.844398" y="310.166125" style="stroke: #000000; stroke-width: 0.6"/>
      </g>
     </g>
    </g>
    <g id="xtick_52">
     <g id="line2d_58">
      <g>
       <use xlink:href="#m4a6d52728c" x="567.171161" y="310.166125" style="stroke: #000000; stroke-width: 0.6"/>
      </g>
     </g>
    </g>
    <g id="text_7">
     <!-- wall time (s) -->
     <g transform="translate(276.279406 338.442687) scale(0.1 -0.1)">
      <defs>
       <path id="DejaVuSans-77" d="M 269 3500 
L 844 3500 
L 1563 769 
L 2278 3500 
L 2956 3500 
L 3675 769 
L 4391 3500 
L 4966 3500 
L 4050 0 
L 3372 0 
L 2619 2869 
L 1863 0 
L 1184 0 
L 269 3500 
z
" transform="scale(0.015625)"/>
       <path id="DejaVuSans-61" d="M 2194 1759 
Q 1497 1759 1228 1600 
Q 959 1441 959 1056 
Q 959 750 1161 570 
Q 1363 391 1709 391 
Q 2188 391 2477 730 
Q 2766 1069 2766 1631 
L 2766 1759 
L 2194 1759 
z
M 3341 1997 
L 3341 0 
L 2766 0 
L 2766 531 
Q 2569 213 2275 61 
Q 1981 -91 1556 -91 
Q 1019 -91 701 211 
Q 384 513 384 1019 
Q 384 1609 779 1909 
Q 1175 2209 1959 2209 
L 2766 2209 
L 2766 2266 
Q 2766 2663 2505 2880 
Q 2244 3097 1772 3097 
Q 1472 3097 1187 3025 
Q 903 2953 641 2809 
L 641 3341 
Q 956 3463 1253 3523 
Q 1550 3584 1831 3584 
Q 2591 3584 2966 3190 
Q 3341 2797 3341 1997 
z
" transform="scale(0.015625)"/>
       <path id="DejaVuSans-6c" d="M 603 4863 
L 1178 4863 
L 1178 0 
L 603 0 
L 603 4863 
z
" transform="scale(0.015625)"/>
       <path id="DejaVuSans-20" transform="scale(0.015625)"/>
       <path id="DejaVuSans-74" d="M 1172 4494 
L 1172 3500 
L 2356 3500 
L 2356 3053 
L 1172 3053 
L 1172 1153 
Q 1172 725 1289 603 
Q 1406 481 1766 481 
L 2356 481 
L 2356 0 
L 1766 0 
Q 1100 0 847 248 
Q 594 497 594 1153 
L 594 3053 
L 172 3053 
L 172 3500 
L 594 3500 
L 594 4494 
L 1172 4494 
z
" transform="scale(0.015625)"/>
       <path id="DejaVuSans-69" d="M 603 3500 
L 1178 3500 
L 1178 0 
L 603 0 
L 603 3500 
z
M 603 4863 
L 1178 4863 
L 1178 4134 
L 603 4134 
L 603 4863 
z
" transform="scale(0.015625)"/>
       <path id="DejaVuSans-6d" d="M 3328 2828 
Q 3544 3216 3844 3400 
Q 4144 3584 4550 3584 
Q 5097 3584 5394 3201 
Q 5691 2819 5691 2113 
L 5691 0 
L 5113 0 
L 5113 2094 
Q 5113 2597 4934 2840 
Q 4756 3084 4391 3084 
Q 3944 3084 3684 2787 
Q 3425 2491 3425 1978 
L 3425 0 
L 2847 0 
L 2847 2094 
Q 2847 2600 2669 2842 
Q 2491 3084 2119 3084 
Q 1678 3084 1418 2786 
Q 1159 2488 1159 1978 
L 1159 0 
L 581 0 
L 581 3500 
L 1159 3500 
L 1159 2956 
Q 1356 3278 1631 3431 
Q 1906 3584 2284 3584 
Q 2666 3584 2933 3390 
Q 3200 3197 3328 2828 
z
" transform="scale(0.015625)"/>
       <path id="DejaVuSans-65" d="M 3597 1894 
L 3597 1613 
L 953 1613 
Q 991 1019 1311 708 
Q 1631 397 2203 397 
Q 2534 397 2845 478 
Q 3156 559 3463 722 
L 3463 178 
Q 3153 47 2828 -22 
Q 2503 -91 2169 -91 
Q 1331 -91 842 396 
Q 353 884 353 1716 
Q 353 2575 817 3079 
Q 1281 3584 2069 3584 
Q 2775 3584 3186 3129 
Q 3597 2675 3597 1894 
z
M 3022 2063 
Q 3016 2534 2758 2815 
Q 2500 3097 2075 3097 
Q 1594 3097 1305 2825 
Q 1016 2553 972 2059 
L 3022 2063 
z
" transform="scale(0.015625)"/>
       <path id="DejaVuSans-28" d="M 1984 4856 
Q 1566 4138 1362 3434 
Q 1159 2731 1159 2009 
Q 1159 1288 1364 580 
Q 1569 -128 1984 -844 
L 1484 -844 
Q 1016 -109 783 600 
Q 550 1309 550 2009 
Q 550 2706 781 3412 
Q 1013 4119 1484 4856 
L 1984 4856 
z
" transform="scale(0.015625)"/>
       <path id="DejaVuSans-73" d="M 2834 3397 
L 2834 2853 
Q 2591 2978 2328 3040 
Q 2066 3103 1784 3103 
Q 1356 3103 1142 2972 
Q 928 2841 928 2578 
Q 928 2378 1081 2264 
Q 1234 2150 1697 2047 
L 1894 2003 
Q 2506 1872 2764 1633 
Q 3022 1394 3022 966 
Q 3022 478 2636 193 
Q 2250 -91 1575 -91 
Q 1294 -91 989 -36 
Q 684 19 347 128 
L 347 722 
Q 666 556 975 473 
Q 1284 391 1588 391 
Q 1994 391 2212 530 
Q 2431 669 2431 922 
Q 2431 1156 2273 1281 
Q 2116 1406 1581 1522 
L 1381 1569 
Q 847 1681 609 1914 
Q 372 2147 372 2553 
Q 372 3047 722 3315 
Q 1072 3584 1716 3584 
Q 2034 3584 2315 3537 
Q 2597 3491 2834 3397 
z
" transform="scale(0.015625)"/>
       <path id="DejaVuSans-29" d="M 513 4856 
L 1013 4856 
Q 1481 4119 1714 3412 
Q 1947 2706 1947 2009 
Q 1947 1309 1714 600 
Q 1481 -109 1013 -844 
L 513 -844 
Q 928 -128 1133 580 
Q 1338 1288 1338 2009 
Q 1338 2731 1133 3434 
Q 928 4138 513 4856 
z
" transform="scale(0.015625)"/>
      </defs>
      <use xlink:href="#DejaVuSans-77"/>
      <use xlink:href="#DejaVuSans-61" transform="translate(81.787109 0)"/>
      <use xlink:href="#DejaVuSans-6c" transform="translate(143.066406 0)"/>
      <use xlink:href="#DejaVuSans-6c" transform="translate(170.849609 0)"/>
      <use xlink:href="#DejaVuSans-20" transform="translate(198.632812 0)"/>
      <use xlink:href="#DejaVuSans-74" transform="translate(230.419922 0)"/>
      <use xlink:href="#DejaVuSans-69" transform="translate(269.628906 0)"/>
      <use xlink:href="#DejaVuSans-6d" transform="translate(297.412109 0)"/>
      <use xlink:href="#DejaVuSans-65" transform="translate(394.824219 0)"/>
      <use xlink:href="#DejaVuSans-20" transform="translate(456.347656 0)"/>
      <use xlink:href="#DejaVuSans-28" transform="translate(488.134766 0)"/>
      <use xlink:href="#DejaVuSans-73" transform="translate(527.148438 0)"/>
      <use xlink:href="#DejaVuSans-29" transform="translate(579.248047 0)"/>
     </g>
    </g>
   </g>
   <g id="matplotlib.axis_2">
    <g id="ytick_1">
     <g id="line2d_59">
      <path d="M 40.603125 301.371961 
L 573.779125 301.371961 
" clip-path="url(#p1e7803a728)" style="fill: none; stroke: #b0b0b0; stroke-opacity: 0.3; stroke-width: 0.8; stroke-linecap: square"/>
     </g>
     <g id="line2d_60">
      <defs>
       <path id="m8e5e4c203b" d="M 0 0 
L -3.5 0 
" style="stroke: #000000; stroke-width: 0.8"/>
      </defs>
      <g>
       <use xlink:href="#m8e5e4c203b" x="40.603125" y="301.371961" style="stroke: #000000; stroke-width: 0.8"/>
      </g>
     </g>
     <g id="text_8">
      <!-- 0 -->
      <g transform="translate(27.240625 305.17118) scale(0.1 -0.1)">
       <use xlink:href="#DejaVuSans-30"/>
      </g>
     </g>
    </g>
    <g id="ytick_2">
     <g id="line2d_61">
      <path d="M 40.603125 258.4736 
L 573.779125 258.4736 
" clip-path="url(#p1e7803a728)" style="fill: none; stroke: #b0b0b0; stroke-opacity: 0.3; stroke-width: 0.8; stroke-linecap: square"/>
     </g>
     <g id="line2d_62">
      <g>
       <use xlink:href="#m8e5e4c203b" x="40.603125" y="258.4736" style="stroke: #000000; stroke-width: 0.8"/>
      </g>
     </g>
     <g id="text_9">
      <!-- 10 -->
      <g transform="translate(20.878125 262.272819) scale(0.1 -0.1)">
       <use xlink:href="#DejaVuSans-31"/>
       <use xlink:href="#DejaVuSans-30" transform="translate(63.623047 0)"/>
      </g>
     </g>
    </g>
    <g id="ytick_3">
     <g id="line2d_63">
      <path d="M 40.603125 215.57524 
L 573.779125 215.57524 
" clip-path="url(#p1e7803a728)" style="fill: none; stroke: #b0b0b0; stroke-opacity: 0.3; stroke-width: 0.8; stroke-linecap: square"/>
     </g>
     <g id="line2d_64">
      <g>
       <use xlink:href="#m8e5e4c203b" x="40.603125" y="215.57524" style="stroke: #000000; stroke-width: 0.8"/>
      </g>
     </g>
     <g id="text_10">
      <!-- 20 -->
      <g transform="translate(20.878125 219.374459) scale(0.1 -0.1)">
       <use xlink:href="#DejaVuSans-32"/>
       <use xlink:href="#DejaVuSans-30" transform="translate(63.623047 0)"/>
      </g>
     </g>
    </g>
    <g id="ytick_4">
     <g id="line2d_65">
      <path d="M 40.603125 172.676879 
L 573.779125 172.676879 
" clip-path="url(#p1e7803a728)" style="fill: none; stroke: #b0b0b0; stroke-opacity: 0.3; stroke-width: 0.8; stroke-linecap: square"/>
     </g>
     <g id="line2d_66">
      <g>
       <use xlink:href="#m8e5e4c203b" x="40.603125" y="172.676879" style="stroke: #000000; stroke-width: 0.8"/>
      </g>
     </g>
     <g id="text_11">
      <!-- 30 -->
      <g transform="translate(20.878125 176.476098) scale(0.1 -0.1)">
       <use xlink:href="#DejaVuSans-33"/>
       <use xlink:href="#DejaVuSans-30" transform="translate(63.623047 0)"/>
      </g>
     </g>
    </g>
    <g id="ytick_5">
     <g id="line2d_67">
      <path d="M 40.603125 129.778518 
L 573.779125 129.778518 
" clip-path="url(#p1e7803a728)" style="fill: none; stroke: #b0b0b0; stroke-opacity: 0.3; stroke-width: 0.8; stroke-linecap: square"/>
     </g>
     <g id="line2d_68">
      <g>
       <use xlink:href="#m8e5e4c203b" x="40.603125" y="129.778518" style="stroke: #000000; stroke-width: 0.8"/>
      </g>
     </g>
     <g id="text_12">
      <!-- 40 -->
      <g transform="translate(20.878125 133.577737) scale(0.1 -0.1)">
       <use xlink:href="#DejaVuSans-34"/>
       <use xlink:href="#DejaVuSans-30" transform="translate(63.623047 0)"/>
      </g>
     </g>
    </g>
    <g id="ytick_6">
     <g id="line2d_69">
      <path d="M 40.603125 86.880158 
L 573.779125 86.880158 
" clip-path="url(#p1e7803a728)" style="fill: none; stroke: #b0b0b0; stroke-opacity: 0.3; stroke-width: 0.8; stroke-linecap: square"/>
     </g>
     <g id="line2d_70">
      <g>
       <use xlink:href="#m8e5e4c203b" x="40.603125" y="86.880158" style="stroke: #000000; stroke-width: 0.8"/>
      </g>
     </g>
     <g id="text_13">
      <!-- 50 -->
      <g transform="translate(20.878125 90.679377) scale(0.1 -0.1)">
       <defs>
        <path id="DejaVuSans-35" d="M 691 4666 
L 3169 4666 
L 3169 4134 
L 1269 4134 
L 1269 2991 
Q 1406 3038 1543 3061 
Q 1681 3084 1819 3084 
Q 2600 3084 3056 2656 
Q 3513 2228 3513 1497 
Q 3513 744 3044 326 
Q 2575 -91 1722 -91 
Q 1428 -91 1123 -41 
Q 819 9 494 109 
L 494 744 
Q 775 591 1075 516 
Q 1375 441 1709 441 
Q 2250 441 2565 725 
Q 2881 1009 2881 1497 
Q 2881 1984 2565 2268 
Q 2250 2553 1709 2553 
Q 1456 2553 1204 2497 
Q 953 2441 691 2322 
L 691 4666 
z
" transform="scale(0.015625)"/>
       </defs>
       <use xlink:href="#DejaVuSans-35"/>
       <use xlink:href="#DejaVuSans-30" transform="translate(63.623047 0)"/>
      </g>
     </g>
    </g>
    <g id="ytick_7">
     <g id="line2d_71">
      <path d="M 40.603125 43.981797 
L 573.779125 43.981797 
" clip-path="url(#p1e7803a728)" style="fill: none; stroke: #b0b0b0; stroke-opacity: 0.3; stroke-width: 0.8; stroke-linecap: square"/>
     </g>
     <g id="line2d_72">
      <g>
       <use xlink:href="#m8e5e4c203b" x="40.603125" y="43.981797" style="stroke: #000000; stroke-width: 0.8"/>
      </g>
     </g>
     <g id="text_14">
      <!-- 60 -->
      <g transform="translate(20.878125 47.781016) scale(0.1 -0.1)">
       <defs>
        <path id="DejaVuSans-36" d="M 2113 2584 
Q 1688 2584 1439 2293 
Q 1191 2003 1191 1497 
Q 1191 994 1439 701 
Q 1688 409 2113 409 
Q 2538 409 2786 701 
Q 3034 994 3034 1497 
Q 3034 2003 2786 2293 
Q 2538 2584 2113 2584 
z
M 3366 4563 
L 3366 3988 
Q 3128 4100 2886 4159 
Q 2644 4219 2406 4219 
Q 1781 4219 1451 3797 
Q 1122 3375 1075 2522 
Q 1259 2794 1537 2939 
Q 1816 3084 2150 3084 
Q 2853 3084 3261 2657 
Q 3669 2231 3669 1497 
Q 3669 778 3244 343 
Q 2819 -91 2113 -91 
Q 1303 -91 875 529 
Q 447 1150 447 2328 
Q 447 3434 972 4092 
Q 1497 4750 2381 4750 
Q 2619 4750 2861 4703 
Q 3103 4656 3366 4563 
z
" transform="scale(0.015625)"/>
       </defs>
       <use xlink:href="#DejaVuSans-36"/>
       <use xlink:href="#DejaVuSans-30" transform="translate(63.623047 0)"/>
      </g>
     </g>
    </g>
    <g id="text_15">
     <!-- formulas solved (cumulative) -->
     <g transform="translate(14.798437 239.264781) rotate(-90) scale(0.1 -0.1)">
      <defs>
       <path id="DejaVuSans-66" d="M 2375 4863 
L 2375 4384 
L 1825 4384 
Q 1516 4384 1395 4259 
Q 1275 4134 1275 3809 
L 1275 3500 
L 2222 3500 
L 2222 3053 
L 1275 3053 
L 1275 0 
L 697 0 
L 697 3053 
L 147 3053 
L 147 3500 
L 697 3500 
L 697 3744 
Q 697 4328 969 4595 
Q 1241 4863 1831 4863 
L 2375 4863 
z
" transform="scale(0.015625)"/>
       <path id="DejaVuSans-6f" d="M 1959 3097 
Q 1497 3097 1228 2736 
Q 959 2375 959 1747 
Q 959 1119 1226 758 
Q 1494 397 1959 397 
Q 2419 397 2687 759 
Q 2956 1122 2956 1747 
Q 2956 2369 2687 2733 
Q 2419 3097 1959 3097 
z
M 1959 3584 
Q 2709 3584 3137 3096 
Q 3566 2609 3566 1747 
Q 3566 888 3137 398 
Q 2709 -91 1959 -91 
Q 1206 -91 779 398 
Q 353 888 353 1747 
Q 353 2609 779 3096 
Q 1206 3584 1959 3584 
z
" transform="scale(0.015625)"/>
       <path id="DejaVuSans-72" d="M 2631 2963 
Q 2534 3019 2420 3045 
Q 2306 3072 2169 3072 
Q 1681 3072 1420 2755 
Q 1159 2438 1159 1844 
L 1159 0 
L 581 0 
L 581 3500 
L 1159 3500 
L 1159 2956 
Q 1341 3275 1631 3429 
Q 1922 3584 2338 3584 
Q 2397 3584 2469 3576 
Q 2541 3569 2628 3553 
L 2631 2963 
z
" transform="scale(0.015625)"/>
       <path id="DejaVuSans-75" d="M 544 1381 
L 544 3500 
L 1119 3500 
L 1119 1403 
Q 1119 906 1312 657 
Q 1506 409 1894 409 
Q 2359 409 2629 706 
Q 2900 1003 2900 1516 
L 2900 3500 
L 3475 3500 
L 3475 0 
L 2900 0 
L 2900 538 
Q 2691 219 2414 64 
Q 2138 -91 1772 -91 
Q 1169 -91 856 284 
Q 544 659 544 1381 
z
M 1991 3584 
L 1991 3584 
z
" transform="scale(0.015625)"/>
       <path id="DejaVuSans-76" d="M 191 3500 
L 800 3500 
L 1894 563 
L 2988 3500 
L 3597 3500 
L 2284 0 
L 1503 0 
L 191 3500 
z
" transform="scale(0.015625)"/>
       <path id="DejaVuSans-64" d="M 2906 2969 
L 2906 4863 
L 3481 4863 
L 3481 0 
L 2906 0 
L 2906 525 
Q 2725 213 2448 61 
Q 2172 -91 1784 -91 
Q 1150 -91 751 415 
Q 353 922 353 1747 
Q 353 2572 751 3078 
Q 1150 3584 1784 3584 
Q 2172 3584 2448 3432 
Q 2725 3281 2906 2969 
z
M 947 1747 
Q 947 1113 1208 752 
Q 1469 391 1925 391 
Q 2381 391 2643 752 
Q 2906 1113 2906 1747 
Q 2906 2381 2643 2742 
Q 2381 3103 1925 3103 
Q 1469 3103 1208 2742 
Q 947 2381 947 1747 
z
" transform="scale(0.015625)"/>
       <path id="DejaVuSans-63" d="M 3122 3366 
L 3122 2828 
Q 2878 2963 2633 3030 
Q 2388 3097 2138 3097 
Q 1578 3097 1268 2742 
Q 959 2388 959 1747 
Q 959 1106 1268 751 
Q 1578 397 2138 397 
Q 2388 397 2633 464 
Q 2878 531 3122 666 
L 3122 134 
Q 2881 22 2623 -34 
Q 2366 -91 2075 -91 
Q 1284 -91 818 406 
Q 353 903 353 1747 
Q 353 2603 823 3093 
Q 1294 3584 2113 3584 
Q 2378 3584 2631 3529 
Q 2884 3475 3122 3366 
z
" transform="scale(0.015625)"/>
      </defs>
      <use xlink:href="#DejaVuSans-66"/>
      <use xlink:href="#DejaVuSans-6f" transform="translate(35.205078 0)"/>
      <use xlink:href="#DejaVuSans-72" transform="translate(96.386719 0)"/>
      <use xlink:href="#DejaVuSans-6d" transform="translate(135.75 0)"/>
      <use xlink:href="#DejaVuSans-75" transform="translate(233.162109 0)"/>
      <use xlink:href="#DejaVuSans-6c" transform="translate(296.541016 0)"/>
      <use xlink:href="#DejaVuSans-61" transform="translate(324.324219 0)"/>
      <use xlink:href="#DejaVuSans-73" transform="translate(385.603516 0)"/>
      <use xlink:href="#DejaVuSans-20" transform="translate(437.703125 0)"/>
      <use xlink:href="#DejaVuSans-73" transform="translate(469.490234 0)"/>
      <use xlink:href="#DejaVuSans-6f" transform="translate(521.589844 0)"/>
      <use xlink:href="#DejaVuSans-6c" transform="translate(582.771484 0)"/>
      <use xlink:href="#DejaVuSans-76" transform="translate(610.554688 0)"/>
      <use xlink:href="#DejaVuSans-65" transform="translate(669.734375 0)"/>
      <use xlink:href="#DejaVuSans-64" transform="translate(731.257812 0)"/>
      <use xlink:href="#DejaVuSans-20" transform="translate(794.734375 0)"/>
      <use xlink:href="#DejaVuSans-28" transform="translate(826.521484 0)"/>
      <use xlink:href="#DejaVuSans-63" transform="translate(865.535156 0)"/>
      <use xlink:href="#DejaVuSans-75" transform="translate(920.515625 0)"/>
      <use xlink:href="#DejaVuSans-6d" transform="translate(983.894531 0)"/>
      <use xlink:href="#DejaVuSans-75" transform="translate(1081.306641 0)"/>
      <use xlink:href="#DejaVuSans-6c" transform="translate(1144.685547 0)"/>
      <use xlink:href="#DejaVuSans-61" transform="translate(1172.46875 0)"/>
      <use xlink:href="#DejaVuSans-74" transform="translate(1233.748047 0)"/>
      <use xlink:href="#DejaVuSans-69" transform="translate(1272.957031 0)"/>
      <use xlink:href="#DejaVuSans-76" transform="translate(1300.740234 0)"/>
      <use xlink:href="#DejaVuSans-65" transform="translate(1359.919922 0)"/>
      <use xlink:href="#DejaVuSans-29" transform="translate(1421.443359 0)"/>
     </g>
    </g>
   </g>
   <g id="line2d_73">
    <path d="M 64.838398 297.082125 
L 65.769105 297.082125 
L 65.769105 292.792289 
L 70.213297 292.792289 
L 70.213297 288.502453 
L 71.662352 288.502453 
L 71.662352 284.212617 
L 74.374437 284.212617 
L 74.374437 279.922781 
L 74.491724 279.922781 
L 74.491724 275.632945 
L 78.040308 275.632945 
L 78.040308 271.343109 
L 79.687223 271.343109 
L 79.687223 267.053273 
L 79.790105 267.053273 
L 79.790105 262.763436 
L 81.137449 262.763436 
L 81.137449 258.4736 
L 83.141055 258.4736 
L 83.141055 254.183764 
L 86.93074 254.183764 
L 86.93074 249.893928 
L 89.192066 249.893928 
L 89.192066 245.604092 
L 97.530195 245.604092 
L 97.530195 241.314256 
L 99.994918 241.314256 
L 99.994918 237.02442 
L 103.15371 237.02442 
L 103.15371 232.734584 
L 113.081421 232.734584 
L 113.081421 228.444748 
L 116.166441 228.444748 
L 116.166441 224.154912 
L 116.747958 224.154912 
L 116.747958 219.865076 
L 120.362065 219.865076 
L 120.362065 215.57524 
L 120.87429 215.57524 
L 120.87429 211.285404 
L 122.837093 211.285404 
L 122.837093 206.995568 
L 136.868998 206.995568 
L 136.868998 202.705732 
L 139.788462 202.705732 
L 139.788462 198.415895 
L 140.96177 198.415895 
L 140.96177 194.126059 
L 147.191602 194.126059 
L 147.191602 189.836223 
L 155.552279 189.836223 
L 155.552279 185.546387 
L 157.682831 185.546387 
L 157.682831 181.256551 
L 163.226632 181.256551 
L 163.226632 176.966715 
L 164.247237 176.966715 
L 164.247237 172.676879 
L 167.525611 172.676879 
L 167.525611 168.387043 
L 169.192834 168.387043 
L 169.192834 164.097207 
L 170.808571 164.097207 
L 170.808571 159.807371 
L 203.826257 159.807371 
L 203.826257 155.517535 
L 244.080145 155.517535 
L 244.080145 151.227699 
L 276.77788 151.227699 
L 276.77788 146.937863 
L 331.905495 146.937863 
L 331.905495 142.648027 
L 340.381758 142.648027 
L 340.381758 138.358191 
L 343.047434 138.358191 
L 343.047434 134.068355 
L 345.810436 134.068355 
L 345.810436 129.778518 
L 350.87068 129.778518 
L 350.87068 125.488682 
L 354.590379 125.488682 
L 354.590379 121.198846 
L 359.211344 121.198846 
L 359.211344 116.90901 
L 366.662702 116.90901 
L 366.662702 112.619174 
L 368.942252 112.619174 
L 368.942252 108.329338 
L 369.237723 108.329338 
L 369.237723 104.039502 
L 375.243042 104.039502 
L 375.243042 99.749666 
L 381.64649 99.749666 
L 381.64649 95.45983 
L 389.928239 95.45983 
L 389.928239 91.169994 
L 476.742188 91.169994 
L 476.742188 86.880158 
" clip-path="url(#p1e7803a728)" style="fill: none; stroke: #1f77b4; stroke-width: 1.6; stroke-linecap: square"/>
   </g>
   <g id="line2d_74">
    <path d="M 75.073122 297.082125 
L 77.31865 297.082125 
L 77.31865 292.792289 
L 79.238354 292.792289 
L 79.238354 288.502453 
L 79.584079 288.502453 
L 79.584079 284.212617 
L 79.995086 284.212617 
L 79.995086 279.922781 
L 82.665327 279.922781 
L 82.665327 275.632945 
L 82.665327 275.632945 
L 82.665327 271.343109 
L 82.760921 271.343109 
L 82.760921 267.053273 
L 84.168385 267.053273 
L 84.168385 262.763436 
L 84.291157 262.763436 
L 84.291157 258.4736 
L 92.701054 258.4736 
L 92.701054 254.183764 
L 94.478981 254.183764 
L 94.478981 249.893928 
L 96.749272 249.893928 
L 96.749272 245.604092 
L 102.180491 245.604092 
L 102.180491 241.314256 
L 108.328143 241.314256 
L 108.328143 237.02442 
L 110.742626 237.02442 
L 110.742626 232.734584 
L 116.180384 232.734584 
L 116.180384 228.444748 
L 123.330806 228.444748 
L 123.330806 224.154912 
L 124.094678 224.154912 
L 124.094678 219.865076 
L 126.928274 219.865076 
L 126.928274 215.57524 
L 127.50147 215.57524 
L 127.50147 211.285404 
L 130.083932 211.285404 
L 130.083932 206.995568 
L 141.450123 206.995568 
L 141.450123 202.705732 
L 145.178778 202.705732 
L 145.178778 198.415895 
L 147.275762 198.415895 
L 147.275762 194.126059 
L 150.583808 194.126059 
L 150.583808 189.836223 
L 162.090026 189.836223 
L 162.090026 185.546387 
L 163.091212 185.546387 
L 163.091212 181.256551 
L 164.921985 181.256551 
L 164.921985 176.966715 
L 167.556973 176.966715 
L 167.556973 172.676879 
L 167.974116 172.676879 
L 167.974116 168.387043 
L 169.809097 168.387043 
L 169.809097 164.097207 
L 172.473501 164.097207 
L 172.473501 159.807371 
L 174.447894 159.807371 
L 174.447894 155.517535 
L 174.986375 155.517535 
L 174.986375 151.227699 
L 210.111201 151.227699 
L 210.111201 146.937863 
L 240.525874 146.937863 
L 240.525874 142.648027 
L 249.906804 142.648027 
L 249.906804 138.358191 
L 328.66227 138.358191 
L 328.66227 134.068355 
L 339.358436 134.068355 
L 339.358436 129.778518 
L 344.301237 129.778518 
L 344.301237 125.488682 
L 344.326122 125.488682 
L 344.326122 121.198846 
L 356.464364 121.198846 
L 356.464364 116.90901 
L 360.884365 116.90901 
L 360.884365 112.619174 
L 361.102882 112.619174 
L 361.102882 108.329338 
L 362.801202 108.329338 
L 362.801202 104.039502 
L 362.822538 104.039502 
L 362.822538 99.749666 
L 367.284841 99.749666 
L 367.284841 95.45983 
L 369.129264 95.45983 
L 369.129264 91.169994 
L 370.757145 91.169994 
L 370.757145 86.880158 
L 375.045597 86.880158 
L 375.045597 82.590322 
L 375.859475 82.590322 
L 375.859475 78.300486 
L 392.987184 78.300486 
L 392.987184 74.01065 
L 410.933871 74.01065 
L 410.933871 69.720814 
L 424.483086 69.720814 
L 424.483086 65.430977 
L 436.778442 65.430977 
L 436.778442 61.141141 
L 475.605734 61.141141 
L 475.605734 56.851305 
L 501.939607 56.851305 
L 501.939607 52.561469 
" clip-path="url(#p1e7803a728)" style="fill: none; stroke: #ff7f0e; stroke-width: 1.6; stroke-linecap: square"/>
   </g>
   <g id="line2d_75">
    <path d="M 74.802842 297.082125 
L 77.391398 297.082125 
L 77.391398 292.792289 
L 82.054601 292.792289 
L 82.054601 288.502453 
L 82.919744 288.502453 
L 82.919744 284.212617 
L 82.919745 284.212617 
L 82.919745 279.922781 
L 83.172572 279.922781 
L 83.172572 275.632945 
L 86.323251 275.632945 
L 86.323251 271.343109 
L 86.844512 271.343109 
L 86.844512 267.053273 
L 87.585788 267.053273 
L 87.585788 262.763436 
L 90.658554 262.763436 
L 90.658554 258.4736 
L 95.97596 258.4736 
L 95.97596 254.183764 
L 96.636472 254.183764 
L 96.636472 249.893928 
L 99.807347 249.893928 
L 99.807347 245.604092 
L 107.19541 245.604092 
L 107.19541 241.314256 
L 108.698785 241.314256 
L 108.698785 237.02442 
L 112.991021 237.02442 
L 112.991021 232.734584 
L 115.463088 232.734584 
L 115.463088 228.444748 
L 125.514128 228.444748 
L 125.514128 224.154912 
L 126.303442 224.154912 
L 126.303442 219.865076 
L 128.004253 219.865076 
L 128.004253 215.57524 
L 129.496259 215.57524 
L 129.496259 211.285404 
L 130.993283 211.285404 
L 130.993283 206.995568 
L 141.390335 206.995568 
L 141.390335 202.705732 
L 147.968251 202.705732 
L 147.968251 198.415895 
L 148.642842 198.415895 
L 148.642842 194.126059 
L 153.331197 194.126059 
L 153.331197 189.836223 
L 160.283102 189.836223 
L 160.283102 185.546387 
L 160.744768 185.546387 
L 160.744768 181.256551 
L 164.370372 181.256551 
L 164.370372 176.966715 
L 166.173827 176.966715 
L 166.173827 172.676879 
L 170.192764 172.676879 
L 170.192764 168.387043 
L 172.330958 168.387043 
L 172.330958 164.097207 
L 173.396477 164.097207 
L 173.396477 159.807371 
L 175.601399 159.807371 
L 175.601399 155.517535 
L 176.159719 155.517535 
L 176.159719 151.227699 
L 210.871078 151.227699 
L 210.871078 146.937863 
L 213.136131 146.937863 
L 213.136131 142.648027 
L 249.16037 142.648027 
L 249.16037 138.358191 
L 330.750019 138.358191 
L 330.750019 134.068355 
L 339.32484 134.068355 
L 339.32484 129.778518 
L 339.801787 129.778518 
L 339.801787 125.488682 
L 344.264578 125.488682 
L 344.264578 121.198846 
L 355.838921 121.198846 
L 355.838921 116.90901 
L 361.137681 116.90901 
L 361.137681 112.619174 
L 361.869969 112.619174 
L 361.869969 108.329338 
L 365.558553 108.329338 
L 365.558553 104.039502 
L 367.058284 104.039502 
L 367.058284 99.749666 
L 369.381359 99.749666 
L 369.381359 95.45983 
L 372.359401 95.45983 
L 372.359401 91.169994 
L 383.220607 91.169994 
L 383.220607 86.880158 
L 385.78679 86.880158 
L 385.78679 82.590322 
L 393.322516 82.590322 
L 393.322516 78.300486 
L 394.336185 78.300486 
L 394.336185 74.01065 
L 399.187321 74.01065 
L 399.187321 69.720814 
L 404.346933 69.720814 
L 404.346933 65.430977 
L 411.409911 65.430977 
L 411.409911 61.141141 
L 412.438094 61.141141 
L 412.438094 56.851305 
L 472.178257 56.851305 
L 472.178257 52.561469 
L 502.124846 52.561469 
L 502.124846 48.271633 
" clip-path="url(#p1e7803a728)" style="fill: none; stroke: #2ca02c; stroke-width: 1.6; stroke-linecap: square"/>
   </g>
   <g id="line2d_76">
    <path d="M 68.620279 297.082125 
L 72.654858 297.082125 
L 72.654858 292.792289 
L 74.802842 292.792289 
L 74.802842 288.502453 
L 76.323546 288.502453 
L 76.323546 284.212617 
L 80.131167 284.212617 
L 80.131167 279.922781 
L 81.104306 279.922781 
L 81.104306 275.632945 
L 81.565855 275.632945 
L 81.565855 271.343109 
L 82.377184 271.343109 
L 82.377184 267.053273 
L 83.266977 267.053273 
L 83.266977 262.763436 
L 83.735728 262.763436 
L 83.735728 258.4736 
L 87.61403 258.4736 
L 87.61403 254.183764 
L 95.09382 254.183764 
L 95.09382 249.893928 
L 96.067708 249.893928 
L 96.067708 245.604092 
L 102.999559 245.604092 
L 102.999559 241.314256 
L 108.530732 241.314256 
L 108.530732 237.02442 
L 112.474908 237.02442 
L 112.474908 232.734584 
L 113.141576 232.734584 
L 113.141576 228.444748 
L 122.421016 228.444748 
L 122.421016 224.154912 
L 123.014111 224.154912 
L 123.014111 219.865076 
L 123.143434 219.865076 
L 123.143434 215.57524 
L 125.701886 215.57524 
L 125.701886 211.285404 
L 128.294685 211.285404 
L 128.294685 206.995568 
L 129.736343 206.995568 
L 129.736343 202.705732 
L 129.746315 202.705732 
L 129.746315 198.415895 
L 130.06415 198.415895 
L 130.06415 194.126059 
L 141.666118 194.126059 
L 141.666118 189.836223 
L 144.199891 189.836223 
L 144.199891 185.546387 
L 145.253629 185.546387 
L 145.253629 181.256551 
L 152.224762 181.256551 
L 152.224762 176.966715 
L 160.437576 176.966715 
L 160.437576 172.676879 
L 160.614729 172.676879 
L 160.614729 168.387043 
L 162.340425 168.387043 
L 162.340425 164.097207 
L 163.513446 164.097207 
L 163.513446 159.807371 
L 168.58615 159.807371 
L 168.58615 155.517535 
L 169.20036 155.517535 
L 169.20036 151.227699 
L 173.342164 151.227699 
L 173.342164 146.937863 
L 178.516823 146.937863 
L 178.516823 142.648027 
L 179.92684 142.648027 
L 179.92684 138.358191 
L 206.706509 138.358191 
L 206.706509 134.068355 
L 241.969276 134.068355 
L 241.969276 129.778518 
L 255.077065 129.778518 
L 255.077065 125.488682 
L 352.01191 125.488682 
L 352.01191 121.198846 
L 353.117444 121.198846 
L 353.117444 116.90901 
L 363.641959 116.90901 
L 363.641959 112.619174 
L 363.803275 112.619174 
L 363.803275 108.329338 
L 366.37434 108.329338 
L 366.37434 104.039502 
L 370.229063 104.039502 
L 370.229063 99.749666 
L 370.414808 99.749666 
L 370.414808 95.45983 
L 370.956987 95.45983 
L 370.956987 91.169994 
L 376.040136 91.169994 
L 376.040136 86.880158 
L 389.513985 86.880158 
L 389.513985 82.590322 
L 392.363924 82.590322 
L 392.363924 78.300486 
L 393.624071 78.300486 
L 393.624071 74.01065 
L 394.464758 74.01065 
L 394.464758 69.720814 
L 394.514247 69.720814 
L 394.514247 65.430977 
L 396.051381 65.430977 
L 396.051381 61.141141 
L 412.163304 61.141141 
L 412.163304 56.851305 
L 412.344463 56.851305 
L 412.344463 52.561469 
L 415.721731 52.561469 
L 415.721731 48.271633 
L 418.606648 48.271633 
L 418.606648 43.981797 
L 549.543852 43.981797 
L 549.543852 39.691961 
" clip-path="url(#p1e7803a728)" style="fill: none; stroke: #d62728; stroke-width: 1.6; stroke-linecap: square"/>
   </g>
   <g id="line2d_77">
    <path d="M 74.413569 297.082125 
L 76.36084 297.082125 
L 76.36084 292.792289 
L 78.678982 292.792289 
L 78.678982 288.502453 
L 81.203654 288.502453 
L 81.203654 284.212617 
L 84.014395 284.212617 
L 84.014395 279.922781 
L 84.959826 279.922781 
L 84.959826 275.632945 
L 85.080225 275.632945 
L 85.080225 271.343109 
L 86.177258 271.343109 
L 86.177258 267.053273 
L 88.396893 267.053273 
L 88.396893 262.763436 
L 88.755282 262.763436 
L 88.755282 258.4736 
L 93.220562 258.4736 
L 93.220562 254.183764 
L 98.534161 254.183764 
L 98.534161 249.893928 
L 99.04825 249.893928 
L 99.04825 245.604092 
L 105.742438 245.604092 
L 105.742438 241.314256 
L 107.697034 241.314256 
L 107.697034 237.02442 
L 111.155084 237.02442 
L 111.155084 232.734584 
L 113.989205 232.734584 
L 113.989205 228.444748 
L 124.197734 228.444748 
L 124.197734 224.154912 
L 127.385364 224.154912 
L 127.385364 219.865076 
L 127.837351 219.865076 
L 127.837351 215.57524 
L 128.634326 215.57524 
L 128.634326 211.285404 
L 129.965094 211.285404 
L 129.965094 206.995568 
L 129.975011 206.995568 
L 129.975011 202.705732 
L 130.06415 202.705732 
L 130.06415 198.415895 
L 131.863734 198.415895 
L 131.863734 194.126059 
L 140.33717 194.126059 
L 140.33717 189.836223 
L 147.649126 189.836223 
L 147.649126 185.546387 
L 147.693955 185.546387 
L 147.693955 181.256551 
L 150.571887 181.256551 
L 150.571887 176.966715 
L 157.662822 176.966715 
L 157.662822 172.676879 
L 158.445767 172.676879 
L 158.445767 168.387043 
L 163.361601 168.387043 
L 163.361601 164.097207 
L 164.842445 164.097207 
L 164.842445 159.807371 
L 166.291248 159.807371 
L 166.291248 155.517535 
L 171.656677 155.517535 
L 171.656677 151.227699 
L 177.55489 151.227699 
L 177.55489 146.937863 
L 179.514801 146.937863 
L 179.514801 142.648027 
L 181.728056 142.648027 
L 181.728056 138.358191 
L 208.238581 138.358191 
L 208.238581 134.068355 
L 215.977934 134.068355 
L 215.977934 129.778518 
L 254.97092 129.778518 
L 254.97092 125.488682 
L 338.989611 125.488682 
L 338.989611 121.198846 
L 352.803775 121.198846 
L 352.803775 116.90901 
L 355.658359 116.90901 
L 355.658359 112.619174 
L 358.47071 112.619174 
L 358.47071 108.329338 
L 373.939551 108.329338 
L 373.939551 104.039502 
L 373.997879 104.039502 
L 373.997879 99.749666 
L 375.230104 99.749666 
L 375.230104 95.45983 
L 383.797651 95.45983 
L 383.797651 91.169994 
L 389.455864 91.169994 
L 389.455864 86.880158 
L 390.212692 86.880158 
L 390.212692 82.590322 
L 393.010882 82.590322 
L 393.010882 78.300486 
L 393.318689 78.300486 
L 393.318689 74.01065 
L 394.228168 74.01065 
L 394.228168 69.720814 
L 394.358385 69.720814 
L 394.358385 65.430977 
L 410.22005 65.430977 
L 410.22005 61.141141 
L 411.379328 61.141141 
L 411.379328 56.851305 
L 414.579849 56.851305 
L 414.579849 52.561469 
L 415.833419 52.561469 
L 415.833419 48.271633 
L 418.097944 48.271633 
L 418.097944 43.981797 
L 440.542547 43.981797 
L 440.542547 39.691961 
L 541.012559 39.691961 
L 541.012559 35.402125 
" clip-path="url(#p1e7803a728)" style="fill: none; stroke: #9467bd; stroke-width: 1.6; stroke-linecap: square"/>
   </g>
   <g id="patch_3">
    <path d="M 40.603125 310.166125 
L 40.603125 22.318125 
" style="fill: none; stroke: #000000; stroke-width: 0.8; stroke-linejoin: miter; stroke-linecap: square"/>
   </g>
   <g id="patch_4">
    <path d="M 573.779125 310.166125 
L 573.779125 22.318125 
" style="fill: none; stroke: #000000; stroke-width: 0.8; stroke-linejoin: miter; stroke-linecap: square"/>
   </g>
   <g id="patch_5">
    <path d="M 40.603125 310.166125 
L 573.779125 310.166125 
" style="fill: none; stroke: #000000; stroke-width: 0.8; stroke-linejoin: miter; stroke-linecap: square"/>
   </g>
   <g id="patch_6">
    <path d="M 40.603125 22.318125 
L 573.779125 22.318125 
" style="fill: none; stroke: #000000; stroke-width: 0.8; stroke-linejoin: miter; stroke-linecap: square"/>
   </g>
   <g id="text_16">
    <!-- Cactus plot: cumulative solved vs wall time -->
    <g transform="translate(176.763313 16.318125) scale(0.12 -0.12)">
     <defs>
      <path id="DejaVuSans-43" d="M 4122 4306 
L 4122 3641 
Q 3803 3938 3442 4084 
Q 3081 4231 2675 4231 
Q 1875 4231 1450 3742 
Q 1025 3253 1025 2328 
Q 1025 1406 1450 917 
Q 1875 428 2675 428 
Q 3081 428 3442 575 
Q 3803 722 4122 1019 
L 4122 359 
Q 3791 134 3420 21 
Q 3050 -91 2638 -91 
Q 1578 -91 968 557 
Q 359 1206 359 2328 
Q 359 3453 968 4101 
Q 1578 4750 2638 4750 
Q 3056 4750 3426 4639 
Q 3797 4528 4122 4306 
z
" transform="scale(0.015625)"/>
      <path id="DejaVuSans-70" d="M 1159 525 
L 1159 -1331 
L 581 -1331 
L 581 3500 
L 1159 3500 
L 1159 2969 
Q 1341 3281 1617 3432 
Q 1894 3584 2278 3584 
Q 2916 3584 3314 3078 
Q 3713 2572 3713 1747 
Q 3713 922 3314 415 
Q 2916 -91 2278 -91 
Q 1894 -91 1617 61 
Q 1341 213 1159 525 
z
M 3116 1747 
Q 3116 2381 2855 2742 
Q 2594 3103 2138 3103 
Q 1681 3103 1420 2742 
Q 1159 2381 1159 1747 
Q 1159 1113 1420 752 
Q 1681 391 2138 391 
Q 2594 391 2855 752 
Q 3116 1113 3116 1747 
z
" transform="scale(0.015625)"/>
      <path id="DejaVuSans-3a" d="M 750 794 
L 1409 794 
L 1409 0 
L 750 0 
L 750 794 
z
M 750 3309 
L 1409 3309 
L 1409 2516 
L 750 2516 
L 750 3309 
z
" transform="scale(0.015625)"/>
     </defs>
     <use xlink:href="#DejaVuSans-43"/>
     <use xlink:href="#DejaVuSans-61" transform="translate(69.824219 0)"/>
     <use xlink:href="#DejaVuSans-63" transform="translate(131.103516 0)"/>
     <use xlink:href="#DejaVuSans-74" transform="translate(186.083984 0)"/>
     <use xlink:href="#DejaVuSans-75" transform="translate(225.292969 0)"/>
     <use xlink:href="#DejaVuSans-73" transform="translate(288.671875 0)"/>
     <use xlink:href="#DejaVuSans-20" transform="translate(340.771484 0)"/>
     <use xlink:href="#DejaVuSans-70" transform="translate(372.558594 0)"/>
     <use xlink:href="#DejaVuSans-6c" transform="translate(436.035156 0)"/>
     <use xlink:href="#DejaVuSans-6f" transform="translate(463.818359 0)"/>
     <use xlink:href="#DejaVuSans-74" transform="translate(525 0)"/>
     <use xlink:href="#DejaVuSans-3a" transform="translate(564.208984 0)"/>
     <use xlink:href="#DejaVuSans-20" transform="translate(597.900391 0)"/>
     <use xlink:href="#DejaVuSans-63" transform="translate(629.6875 0)"/>
     <use xlink:href="#DejaVuSans-75" transform="translate(684.667969 0)"/>
     <use xlink:href="#DejaVuSans-6d" transform="translate(748.046875 0)"/>
     <use xlink:href="#DejaVuSans-75" transform="translate(845.458984 0)"/>
     <use xlink:href="#DejaVuSans-6c" transform="translate(908.837891 0)"/>
     <use xlink:href="#DejaVuSans-61" transform="translate(936.621094 0)"/>
     <use xlink:href="#DejaVuSans-74" transform="translate(997.900391 0)"/>
     <use xlink:href="#DejaVuSans-69" transform="translate(1037.109375 0)"/>
     <use xlink:href="#DejaVuSans-76" transform="translate(1064.892578 0)"/>
     <use xlink:href="#DejaVuSans-65" transform="translate(1124.072266 0)"/>
     <use xlink:href="#DejaVuSans-20" transform="translate(1185.595703 0)"/>
     <use xlink:href="#DejaVuSans-73" transform="translate(1217.382812 0)"/>
     <use xlink:href="#DejaVuSans-6f" transform="translate(1269.482422 0)"/>
     <use xlink:href="#DejaVuSans-6c" transform="translate(1330.664062 0)"/>
     <use xlink:href="#DejaVuSans-76" transform="translate(1358.447266 0)"/>
     <use xlink:href="#DejaVuSans-65" transform="translate(1417.626953 0)"/>
     <use xlink:href="#DejaVuSans-64" transform="translate(1479.150391 0)"/>
     <use xlink:href="#DejaVuSans-20" transform="translate(1542.626953 0)"/>
     <use xlink:href="#DejaVuSans-76" transform="translate(1574.414062 0)"/>
     <use xlink:href="#DejaVuSans-73" transform="translate(1633.59375 0)"/>
     <use xlink:href="#DejaVuSans-20" transform="translate(1685.693359 0)"/>
     <use xlink:href="#DejaVuSans-77" transform="translate(1717.480469 0)"/>
     <use xlink:href="#DejaVuSans-61" transform="translate(1799.267578 0)"/>
     <use xlink:href="#DejaVuSans-6c" transform="translate(1860.546875 0)"/>
     <use xlink:href="#DejaVuSans-6c" transform="translate(1888.330078 0)"/>
     <use xlink:href="#DejaVuSans-20" transform="translate(1916.113281 0)"/>
     <use xlink:href="#DejaVuSans-74" transform="translate(1947.900391 0)"/>
     <use xlink:href="#DejaVuSans-69" transform="translate(1987.109375 0)"/>
     <use xlink:href="#DejaVuSans-6d" transform="translate(2014.892578 0)"/>
     <use xlink:href="#DejaVuSans-65" transform="translate(2112.304688 0)"/>
    </g>
   </g>
   <g id="legend_1">
    <g id="patch_7">
     <path d="M 586.442645 113.386875 
L 631.787958 113.386875 
Q 633.787958 113.386875 633.787958 111.386875 
L 633.787958 24.318125 
Q 633.787958 22.318125 631.787958 22.318125 
L 586.442645 22.318125 
Q 584.442645 22.318125 584.442645 24.318125 
L 584.442645 111.386875 
Q 584.442645 113.386875 586.442645 113.386875 
z
" style="fill: #ffffff; opacity: 0.8; stroke: #cccccc; stroke-linejoin: miter"/>
    </g>
    <g id="text_17">
     <!-- config -->
     <g transform="translate(593.81452 33.916563) scale(0.1 -0.1)">
      <defs>
       <path id="DejaVuSans-6e" d="M 3513 2113 
L 3513 0 
L 2938 0 
L 2938 2094 
Q 2938 2591 2744 2837 
Q 2550 3084 2163 3084 
Q 1697 3084 1428 2787 
Q 1159 2491 1159 1978 
L 1159 0 
L 581 0 
L 581 3500 
L 1159 3500 
L 1159 2956 
Q 1366 3272 1645 3428 
Q 1925 3584 2291 3584 
Q 2894 3584 3203 3211 
Q 3513 2838 3513 2113 
z
" transform="scale(0.015625)"/>
       <path id="DejaVuSans-67" d="M 2906 1791 
Q 2906 2416 2648 2759 
Q 2391 3103 1925 3103 
Q 1463 3103 1205 2759 
Q 947 2416 947 1791 
Q 947 1169 1205 825 
Q 1463 481 1925 481 
Q 2391 481 2648 825 
Q 2906 1169 2906 1791 
z
M 3481 434 
Q 3481 -459 3084 -895 
Q 2688 -1331 1869 -1331 
Q 1566 -1331 1297 -1286 
Q 1028 -1241 775 -1147 
L 775 -588 
Q 1028 -725 1275 -790 
Q 1522 -856 1778 -856 
Q 2344 -856 2625 -561 
Q 2906 -266 2906 331 
L 2906 616 
Q 2728 306 2450 153 
Q 2172 0 1784 0 
Q 1141 0 747 490 
Q 353 981 353 1791 
Q 353 2603 747 3093 
Q 1141 3584 1784 3584 
Q 2172 3584 2450 3431 
Q 2728 3278 2906 2969 
L 2906 3500 
L 3481 3500 
L 3481 434 
z
" transform="scale(0.015625)"/>
      </defs>
      <use xlink:href="#DejaVuSans-63"/>
      <use xlink:href="#DejaVuSans-6f" transform="translate(54.980469 0)"/>
      <use xlink:href="#DejaVuSans-6e" transform="translate(116.162109 0)"/>
      <use xlink:href="#DejaVuSans-66" transform="translate(179.541016 0)"/>
      <use xlink:href="#DejaVuSans-69" transform="translate(214.746094 0)"/>
      <use xlink:href="#DejaVuSans-67" transform="translate(242.529297 0)"/>
     </g>
    </g>
    <g id="line2d_78">
     <path d="M 588.442645 45.094688 
L 598.442645 45.094688 
L 598.442645 45.094688 
L 608.442645 45.094688 
L 608.442645 45.094688 
" style="fill: none; stroke: #1f77b4; stroke-width: 1.6; stroke-linecap: square"/>
    </g>
    <g id="text_18">
     <!-- C0 -->
     <g transform="translate(616.442645 48.594688) scale(0.1 -0.1)">
      <use xlink:href="#DejaVuSans-43"/>
      <use xlink:href="#DejaVuSans-30" transform="translate(69.824219 0)"/>
     </g>
    </g>
    <g id="line2d_79">
     <path d="M 588.442645 59.772813 
L 598.442645 59.772813 
L 598.442645 59.772813 
L 608.442645 59.772813 
L 608.442645 59.772813 
" style="fill: none; stroke: #ff7f0e; stroke-width: 1.6; stroke-linecap: square"/>
    </g>
    <g id="text_19">
     <!-- C1 -->
     <g transform="translate(616.442645 63.272813) scale(0.1 -0.1)">
      <use xlink:href="#DejaVuSans-43"/>
      <use xlink:href="#DejaVuSans-31" transform="translate(69.824219 0)"/>
     </g>
    </g>
    <g id="line2d_80">
     <path d="M 588.442645 74.450938 
L 598.442645 74.450938 
L 598.442645 74.450938 
L 608.442645 74.450938 
L 608.442645 74.450938 
" style="fill: none; stroke: #2ca02c; stroke-width: 1.6; stroke-linecap: square"/>
    </g>
    <g id="text_20">
     <!-- C2 -->
     <g transform="translate(616.442645 77.950938) scale(0.1 -0.1)">
      <use xlink:href="#DejaVuSans-43"/>
      <use xlink:href="#DejaVuSans-32" transform="translate(69.824219 0)"/>
     </g>
    </g>
    <g id="line2d_81">
     <path d="M 588.442645 89.129063 
L 598.442645 89.129063 
L 598.442645 89.129063 
L 608.442645 89.129063 
L 608.442645 89.129063 
" style="fill: none; stroke: #d62728; stroke-width: 1.6; stroke-linecap: square"/>
    </g>
    <g id="text_21">
     <!-- C3 -->
     <g transform="translate(616.442645 92.629063) scale(0.1 -0.1)">
      <use xlink:href="#DejaVuSans-43"/>
      <use xlink:href="#DejaVuSans-33" transform="translate(69.824219 0)"/>
     </g>
    </g>
    <g id="line2d_82">
     <path d="M 588.442645 103.807188 
L 598.442645 103.807188 
L 598.442645 103.807188 
L 608.442645 103.807188 
L 608.442645 103.807188 
" style="fill: none; stroke: #9467bd; stroke-width: 1.6; stroke-linecap: square"/>
    </g>
    <g id="text_22">
     <!-- C4 -->
     <g transform="translate(616.442645 107.307188) scale(0.1 -0.1)">
      <use xlink:href="#DejaVuSans-43"/>
      <use xlink:href="#DejaVuSans-34" transform="translate(69.824219 0)"/>
     </g>
    </g>
   </g>
  </g>
 </g>
 <defs>
  <clipPath id="p1e7803a728">
   <rect x="40.603125" y="22.318125" width="533.176" height="287.848"/>
  </clipPath>
 </defs>
</svg>
