<?xml version="1.0" encoding="utf-8" standalone="no"?>
<!DOCTYPE svg PUBLIC "-//W3C//DTD SVG 1.1//EN"
  "http://www.w3.org/Graphics/SVG/1.1/DTD/svg11.dtd">
<svg xmlns:xlink="http://www.w3.org/1999/xlink" width="640.953083pt" height="347.722375pt" viewBox="0 0 640.953083 347.722375" xmlns="http://www.w3.org/2000/svg" version="1.1">
 <metadata>
  <rdf:RDF xmlns:dc="http://purl.org/dc/elements/1.1/" xmlns:cc="http://creativecommons.org/ns#" xmlns:rdf="http://www.w3.org/1999/02/22-rdf-syntax-ns#">
   <cc:Work>
    <dc:type rdf:resource="http://purl.org/dc/dcmitype/StillImage"/>
    <dc:date>2026-05-02T22:29:23.951854</dc:date>
    <dc:format>image/svg+xml</dc:format>
    <dc:creator>
     <cc:Agent>
      <dc:title>Matplotlib v3.10.9, https://matplotlib.org/</dc:title>
     </cc:Agent>
    </dc:creator>
   </cc:Work>
  </rdf:RDF>
 </metadata>
 <defs>
  <style type="text/css">*{stroke-linejoin: round; stroke-linecap: butt}</style>
 </defs>
 <g id="figure_1">
  <g id="patch_1">
   <path d="M 0 347.722375 
L 640.953083 347.722375 
L 640.953083 0 
L 0 0 
z
" style="fill: #ffffff"/>
  </g>
  <g id="axes_1">
   <g id="patch_2">
    <path d="M 43.78125 310.166125 
L 573.80725 310.166125 
L 573.80725 22.318125 
L 43.78125 22.318125 
z
" style="fill: #ffffff"/>
   </g>
   <g id="matplotlib.axis_1">
    <g id="xtick_1">
     <g id="line2d_1">
      <path d="M 76.007465 310.166125 
L 76.007465 22.318125 
" clip-path="url(#p6eb68b7763)" style="fill: none; stroke: #b0b0b0; stroke-opacity: 0.3; stroke-width: 0.8; stroke-linecap: square"/>
     </g>
     <g id="line2d_2">
      <defs>
       <path id="md4d320ef4e" d="M 0 0 
L 0 3.5 
" style="stroke: #000000; stroke-width: 0.8"/>
      </defs>
      <g>
       <use xlink:href="#md4d320ef4e" x="76.007465" y="310.166125" style="stroke: #000000; stroke-width: 0.8"/>
      </g>
     </g>
     <g id="text_1">
      <!-- $\mathdefault{10^{-4}}$ -->
      <g transform="translate(64.257465 324.764563) scale(0.1 -0.1)">
       <defs>
        <path id="DejaVuSans-31" d="M 794 531 
L 1825 531 
L 1825 4091 
L 703 3866 
L 703 4441 
L 1819 4666 
L 2450 4666 
L 2450 531 
L 3481 531 
L 3481 0 
L 794 0 
L 794 531 
z
" transform="scale(0.015625)"/>
        <path id="DejaVuSans-30" d="M 2034 4250 
Q 1547 4250 1301 3770 
Q 1056 3291 1056 2328 
Q 1056 1369 1301 889 
Q 1547 409 2034 409 
Q 2525 409 2770 889 
Q 3016 1369 3016 2328 
Q 3016 3291 2770 3770 
Q 2525 4250 2034 4250 
z
M 2034 4750 
Q 2819 4750 3233 4129 
Q 3647 3509 3647 2328 
Q 3647 1150 3233 529 
Q 2819 -91 2034 -91 
Q 1250 -91 836 529 
Q 422 1150 422 2328 
Q 422 3509 836 4129 
Q 1250 4750 2034 4750 
z
" transform="scale(0.015625)"/>
        <path id="DejaVuSans-2212" d="M 678 2272 
L 4684 2272 
L 4684 1741 
L 678 1741 
L 678 2272 
z
" transform="scale(0.015625)"/>
        <path id="DejaVuSans-34" d="M 2419 4116 
L 825 1625 
L 2419 1625 
L 2419 4116 
z
M 2253 4666 
L 3047 4666 
L 3047 1625 
L 3713 1625 
L 3713 1100 
L 3047 1100 
L 3047 0 
L 2419 0 
L 2419 1100 
L 313 1100 
L 313 1709 
L 2253 4666 
z
" transform="scale(0.015625)"/>
       </defs>
       <use xlink:href="#DejaVuSans-31" transform="translate(0 0.684375)"/>
       <use xlink:href="#DejaVuSans-30" transform="translate(63.623047 0.684375)"/>
       <use xlink:href="#DejaVuSans-2212" transform="translate(128.203125 38.965625) scale(0.7)"/>
       <use xlink:href="#DejaVuSans-34" transform="translate(186.855469 38.965625) scale(0.7)"/>
      </g>
     </g>
    </g>
    <g id="xtick_2">
     <g id="line2d_3">
      <path d="M 168.674524 310.166125 
L 168.674524 22.318125 
" clip-path="url(#p6eb68b7763)" style="fill: none; stroke: #b0b0b0; stroke-opacity: 0.3; stroke-width: 0.8; stroke-linecap: square"/>
     </g>
     <g id="line2d_4">
      <g>
       <use xlink:href="#md4d320ef4e" x="168.674524" y="310.166125" style="stroke: #000000; stroke-width: 0.8"/>
      </g>
     </g>
     <g id="text_2">
      <!-- $\mathdefault{10^{-3}}$ -->
      <g transform="translate(156.924524 324.764563) scale(0.1 -0.1)">
       <defs>
        <path id="DejaVuSans-33" d="M 2597 2516 
Q 3050 2419 3304 2112 
Q 3559 1806 3559 1356 
Q 3559 666 3084 287 
Q 2609 -91 1734 -91 
Q 1441 -91 1130 -33 
Q 819 25 488 141 
L 488 750 
Q 750 597 1062 519 
Q 1375 441 1716 441 
Q 2309 441 2620 675 
Q 2931 909 2931 1356 
Q 2931 1769 2642 2001 
Q 2353 2234 1838 2234 
L 1294 2234 
L 1294 2753 
L 1863 2753 
Q 2328 2753 2575 2939 
Q 2822 3125 2822 3475 
Q 2822 3834 2567 4026 
Q 2313 4219 1838 4219 
Q 1578 4219 1281 4162 
Q 984 4106 628 3988 
L 628 4550 
Q 988 4650 1302 4700 
Q 1616 4750 1894 4750 
Q 2613 4750 3031 4423 
Q 3450 4097 3450 3541 
Q 3450 3153 3228 2886 
Q 3006 2619 2597 2516 
z
" transform="scale(0.015625)"/>
       </defs>
       <use xlink:href="#DejaVuSans-31" transform="translate(0 0.765625)"/>
       <use xlink:href="#DejaVuSans-30" transform="translate(63.623047 0.765625)"/>
       <use xlink:href="#DejaVuSans-2212" transform="translate(128.203125 39.046875) scale(0.7)"/>
       <use xlink:href="#DejaVuSans-33" transform="translate(186.855469 39.046875) scale(0.7)"/>
      </g>
     </g>
    </g>
    <g id="xtick_3">
     <g id="line2d_5">
      <path d="M 261.341583 310.166125 
L 261.341583 22.318125 
" clip-path="url(#p6eb68b7763)" style="fill: none; stroke: #b0b0b0; stroke-opacity: 0.3; stroke-width: 0.8; stroke-linecap: square"/>
     </g>
     <g id="line2d_6">
      <g>
       <use xlink:href="#md4d320ef4e" x="261.341583" y="310.166125" style="stroke: #000000; stroke-width: 0.8"/>
      </g>
     </g>
     <g id="text_3">
      <!-- $\mathdefault{10^{-2}}$ -->
      <g transform="translate(249.591583 324.764563) scale(0.1 -0.1)">
       <defs>
        <path id="DejaVuSans-32" d="M 1228 531 
L 3431 531 
L 3431 0 
L 469 0 
L 469 531 
Q 828 903 1448 1529 
Q 2069 2156 2228 2338 
Q 2531 2678 2651 2914 
Q 2772 3150 2772 3378 
Q 2772 3750 2511 3984 
Q 2250 4219 1831 4219 
Q 1534 4219 1204 4116 
Q 875 4013 500 3803 
L 500 4441 
Q 881 4594 1212 4672 
Q 1544 4750 1819 4750 
Q 2544 4750 2975 4387 
Q 3406 4025 3406 3419 
Q 3406 3131 3298 2873 
Q 3191 2616 2906 2266 
Q 2828 2175 2409 1742 
Q 1991 1309 1228 531 
z
" transform="scale(0.015625)"/>
       </defs>
       <use xlink:href="#DejaVuSans-31" transform="translate(0 0.765625)"/>
       <use xlink:href="#DejaVuSans-30" transform="translate(63.623047 0.765625)"/>
       <use xlink:href="#DejaVuSans-2212" transform="translate(128.203125 39.046875) scale(0.7)"/>
       <use xlink:href="#DejaVuSans-32" transform="translate(186.855469 39.046875) scale(0.7)"/>
      </g>
     </g>
    </g>
    <g id="xtick_4">
     <g id="line2d_7">
      <path d="M 354.008643 310.166125 
L 354.008643 22.318125 
" clip-path="url(#p6eb68b7763)" style="fill: none; stroke: #b0b0b0; stroke-opacity: 0.3; stroke-width: 0.8; stroke-linecap: square"/>
     </g>
     <g id="line2d_8">
      <g>
       <use xlink:href="#md4d320ef4e" x="354.008643" y="310.166125" style="stroke: #000000; stroke-width: 0.8"/>
      </g>
     </g>
     <g id="text_4">
      <!-- $\mathdefault{10^{-1}}$ -->
      <g transform="translate(342.258643 324.764563) scale(0.1 -0.1)">
       <use xlink:href="#DejaVuSans-31" transform="translate(0 0.684375)"/>
       <use xlink:href="#DejaVuSans-30" transform="translate(63.623047 0.684375)"/>
       <use xlink:href="#DejaVuSans-2212" transform="translate(128.203125 38.965625) scale(0.7)"/>
       <use xlink:href="#DejaVuSans-31" transform="translate(186.855469 38.965625) scale(0.7)"/>
      </g>
     </g>
    </g>
    <g id="xtick_5">
     <g id="line2d_9">
      <path d="M 446.675702 310.166125 
L 446.675702 22.318125 
" clip-path="url(#p6eb68b7763)" style="fill: none; stroke: #b0b0b0; stroke-opacity: 0.3; stroke-width: 0.8; stroke-linecap: square"/>
     </g>
     <g id="line2d_10">
      <g>
       <use xlink:href="#md4d320ef4e" x="446.675702" y="310.166125" style="stroke: #000000; stroke-width: 0.8"/>
      </g>
     </g>
     <g id="text_5">
      <!-- $\mathdefault{10^{0}}$ -->
      <g transform="translate(437.875702 324.764563) scale(0.1 -0.1)">
       <use xlink:href="#DejaVuSans-31" transform="translate(0 0.765625)"/>
       <use xlink:href="#DejaVuSans-30" transform="translate(63.623047 0.765625)"/>
       <use xlink:href="#DejaVuSans-30" transform="translate(128.203125 39.046875) scale(0.7)"/>
      </g>
     </g>
    </g>
    <g id="xtick_6">
     <g id="line2d_11">
      <path d="M 539.342762 310.166125 
L 539.342762 22.318125 
" clip-path="url(#p6eb68b7763)" style="fill: none; stroke: #b0b0b0; stroke-opacity: 0.3; stroke-width: 0.8; stroke-linecap: square"/>
     </g>
     <g id="line2d_12">
      <g>
       <use xlink:href="#md4d320ef4e" x="539.342762" y="310.166125" style="stroke: #000000; stroke-width: 0.8"/>
      </g>
     </g>
     <g id="text_6">
      <!-- $\mathdefault{10^{1}}$ -->
      <g transform="translate(530.542762 324.764563) scale(0.1 -0.1)">
       <use xlink:href="#DejaVuSans-31" transform="translate(0 0.684375)"/>
       <use xlink:href="#DejaVuSans-30" transform="translate(63.623047 0.684375)"/>
       <use xlink:href="#DejaVuSans-31" transform="translate(128.203125 38.965625) scale(0.7)"/>
      </g>
     </g>
    </g>
    <g id="xtick_7">
     <g id="line2d_13">
      <defs>
       <path id="m6fd03c81b9" d="M 0 0 
L 0 2 
" style="stroke: #000000; stroke-width: 0.6"/>
      </defs>
      <g>
       <use xlink:href="#m6fd03c81b9" x="48.1119" y="310.166125" style="stroke: #000000; stroke-width: 0.6"/>
      </g>
     </g>
    </g>
    <g id="xtick_8">
     <g id="line2d_14">
      <g>
       <use xlink:href="#m6fd03c81b9" x="55.449394" y="310.166125" style="stroke: #000000; stroke-width: 0.6"/>
      </g>
     </g>
    </g>
    <g id="xtick_9">
     <g id="line2d_15">
      <g>
       <use xlink:href="#m6fd03c81b9" x="61.653156" y="310.166125" style="stroke: #000000; stroke-width: 0.6"/>
      </g>
     </g>
    </g>
    <g id="xtick_10">
     <g id="line2d_16">
      <g>
       <use xlink:href="#m6fd03c81b9" x="67.027099" y="310.166125" style="stroke: #000000; stroke-width: 0.6"/>
      </g>
     </g>
    </g>
    <g id="xtick_11">
     <g id="line2d_17">
      <g>
       <use xlink:href="#m6fd03c81b9" x="71.767253" y="310.166125" style="stroke: #000000; stroke-width: 0.6"/>
      </g>
     </g>
    </g>
    <g id="xtick_12">
     <g id="line2d_18">
      <g>
       <use xlink:href="#m6fd03c81b9" x="103.903029" y="310.166125" style="stroke: #000000; stroke-width: 0.6"/>
      </g>
     </g>
    </g>
    <g id="xtick_13">
     <g id="line2d_19">
      <g>
       <use xlink:href="#m6fd03c81b9" x="120.220888" y="310.166125" style="stroke: #000000; stroke-width: 0.6"/>
      </g>
     </g>
    </g>
    <g id="xtick_14">
     <g id="line2d_20">
      <g>
       <use xlink:href="#m6fd03c81b9" x="131.798594" y="310.166125" style="stroke: #000000; stroke-width: 0.6"/>
      </g>
     </g>
    </g>
    <g id="xtick_15">
     <g id="line2d_21">
      <g>
       <use xlink:href="#m6fd03c81b9" x="140.77896" y="310.166125" style="stroke: #000000; stroke-width: 0.6"/>
      </g>
     </g>
    </g>
    <g id="xtick_16">
     <g id="line2d_22">
      <g>
       <use xlink:href="#m6fd03c81b9" x="148.116453" y="310.166125" style="stroke: #000000; stroke-width: 0.6"/>
      </g>
     </g>
    </g>
    <g id="xtick_17">
     <g id="line2d_23">
      <g>
       <use xlink:href="#m6fd03c81b9" x="154.320215" y="310.166125" style="stroke: #000000; stroke-width: 0.6"/>
      </g>
     </g>
    </g>
    <g id="xtick_18">
     <g id="line2d_24">
      <g>
       <use xlink:href="#m6fd03c81b9" x="159.694158" y="310.166125" style="stroke: #000000; stroke-width: 0.6"/>
      </g>
     </g>
    </g>
    <g id="xtick_19">
     <g id="line2d_25">
      <g>
       <use xlink:href="#m6fd03c81b9" x="164.434312" y="310.166125" style="stroke: #000000; stroke-width: 0.6"/>
      </g>
     </g>
    </g>
    <g id="xtick_20">
     <g id="line2d_26">
      <g>
       <use xlink:href="#m6fd03c81b9" x="196.570089" y="310.166125" style="stroke: #000000; stroke-width: 0.6"/>
      </g>
     </g>
    </g>
    <g id="xtick_21">
     <g id="line2d_27">
      <g>
       <use xlink:href="#m6fd03c81b9" x="212.887948" y="310.166125" style="stroke: #000000; stroke-width: 0.6"/>
      </g>
     </g>
    </g>
    <g id="xtick_22">
     <g id="line2d_28">
      <g>
       <use xlink:href="#m6fd03c81b9" x="224.465653" y="310.166125" style="stroke: #000000; stroke-width: 0.6"/>
      </g>
     </g>
    </g>
    <g id="xtick_23">
     <g id="line2d_29">
      <g>
       <use xlink:href="#m6fd03c81b9" x="233.446019" y="310.166125" style="stroke: #000000; stroke-width: 0.6"/>
      </g>
     </g>
    </g>
    <g id="xtick_24">
     <g id="line2d_30">
      <g>
       <use xlink:href="#m6fd03c81b9" x="240.783512" y="310.166125" style="stroke: #000000; stroke-width: 0.6"/>
      </g>
     </g>
    </g>
    <g id="xtick_25">
     <g id="line2d_31">
      <g>
       <use xlink:href="#m6fd03c81b9" x="246.987274" y="310.166125" style="stroke: #000000; stroke-width: 0.6"/>
      </g>
     </g>
    </g>
    <g id="xtick_26">
     <g id="line2d_32">
      <g>
       <use xlink:href="#m6fd03c81b9" x="252.361218" y="310.166125" style="stroke: #000000; stroke-width: 0.6"/>
      </g>
     </g>
    </g>
    <g id="xtick_27">
     <g id="line2d_33">
      <g>
       <use xlink:href="#m6fd03c81b9" x="257.101371" y="310.166125" style="stroke: #000000; stroke-width: 0.6"/>
      </g>
     </g>
    </g>
    <g id="xtick_28">
     <g id="line2d_34">
      <g>
       <use xlink:href="#m6fd03c81b9" x="289.237148" y="310.166125" style="stroke: #000000; stroke-width: 0.6"/>
      </g>
     </g>
    </g>
    <g id="xtick_29">
     <g id="line2d_35">
      <g>
       <use xlink:href="#m6fd03c81b9" x="305.555007" y="310.166125" style="stroke: #000000; stroke-width: 0.6"/>
      </g>
     </g>
    </g>
    <g id="xtick_30">
     <g id="line2d_36">
      <g>
       <use xlink:href="#m6fd03c81b9" x="317.132712" y="310.166125" style="stroke: #000000; stroke-width: 0.6"/>
      </g>
     </g>
    </g>
    <g id="xtick_31">
     <g id="line2d_37">
      <g>
       <use xlink:href="#m6fd03c81b9" x="326.113078" y="310.166125" style="stroke: #000000; stroke-width: 0.6"/>
      </g>
     </g>
    </g>
    <g id="xtick_32">
     <g id="line2d_38">
      <g>
       <use xlink:href="#m6fd03c81b9" x="333.450572" y="310.166125" style="stroke: #000000; stroke-width: 0.6"/>
      </g>
     </g>
    </g>
    <g id="xtick_33">
     <g id="line2d_39">
      <g>
       <use xlink:href="#m6fd03c81b9" x="339.654334" y="310.166125" style="stroke: #000000; stroke-width: 0.6"/>
      </g>
     </g>
    </g>
    <g id="xtick_34">
     <g id="line2d_40">
      <g>
       <use xlink:href="#m6fd03c81b9" x="345.028277" y="310.166125" style="stroke: #000000; stroke-width: 0.6"/>
      </g>
     </g>
    </g>
    <g id="xtick_35">
     <g id="line2d_41">
      <g>
       <use xlink:href="#m6fd03c81b9" x="349.768431" y="310.166125" style="stroke: #000000; stroke-width: 0.6"/>
      </g>
     </g>
    </g>
    <g id="xtick_36">
     <g id="line2d_42">
      <g>
       <use xlink:href="#m6fd03c81b9" x="381.904207" y="310.166125" style="stroke: #000000; stroke-width: 0.6"/>
      </g>
     </g>
    </g>
    <g id="xtick_37">
     <g id="line2d_43">
      <g>
       <use xlink:href="#m6fd03c81b9" x="398.222066" y="310.166125" style="stroke: #000000; stroke-width: 0.6"/>
      </g>
     </g>
    </g>
    <g id="xtick_38">
     <g id="line2d_44">
      <g>
       <use xlink:href="#m6fd03c81b9" x="409.799772" y="310.166125" style="stroke: #000000; stroke-width: 0.6"/>
      </g>
     </g>
    </g>
    <g id="xtick_39">
     <g id="line2d_45">
      <g>
       <use xlink:href="#m6fd03c81b9" x="418.780138" y="310.166125" style="stroke: #000000; stroke-width: 0.6"/>
      </g>
     </g>
    </g>
    <g id="xtick_40">
     <g id="line2d_46">
      <g>
       <use xlink:href="#m6fd03c81b9" x="426.117631" y="310.166125" style="stroke: #000000; stroke-width: 0.6"/>
      </g>
     </g>
    </g>
    <g id="xtick_41">
     <g id="line2d_47">
      <g>
       <use xlink:href="#m6fd03c81b9" x="432.321393" y="310.166125" style="stroke: #000000; stroke-width: 0.6"/>
      </g>
     </g>
    </g>
    <g id="xtick_42">
     <g id="line2d_48">
      <g>
       <use xlink:href="#m6fd03c81b9" x="437.695336" y="310.166125" style="stroke: #000000; stroke-width: 0.6"/>
      </g>
     </g>
    </g>
    <g id="xtick_43">
     <g id="line2d_49">
      <g>
       <use xlink:href="#m6fd03c81b9" x="442.43549" y="310.166125" style="stroke: #000000; stroke-width: 0.6"/>
      </g>
     </g>
    </g>
    <g id="xtick_44">
     <g id="line2d_50">
      <g>
       <use xlink:href="#m6fd03c81b9" x="474.571267" y="310.166125" style="stroke: #000000; stroke-width: 0.6"/>
      </g>
     </g>
    </g>
    <g id="xtick_45">
     <g id="line2d_51">
      <g>
       <use xlink:href="#m6fd03c81b9" x="490.889126" y="310.166125" style="stroke: #000000; stroke-width: 0.6"/>
      </g>
     </g>
    </g>
    <g id="xtick_46">
     <g id="line2d_52">
      <g>
       <use xlink:href="#m6fd03c81b9" x="502.466831" y="310.166125" style="stroke: #000000; stroke-width: 0.6"/>
      </g>
     </g>
    </g>
    <g id="xtick_47">
     <g id="line2d_53">
      <g>
       <use xlink:href="#m6fd03c81b9" x="511.447197" y="310.166125" style="stroke: #000000; stroke-width: 0.6"/>
      </g>
     </g>
    </g>
    <g id="xtick_48">
     <g id="line2d_54">
      <g>
       <use xlink:href="#m6fd03c81b9" x="518.78469" y="310.166125" style="stroke: #000000; stroke-width: 0.6"/>
      </g>
     </g>
    </g>
    <g id="xtick_49">
     <g id="line2d_55">
      <g>
       <use xlink:href="#m6fd03c81b9" x="524.988452" y="310.166125" style="stroke: #000000; stroke-width: 0.6"/>
      </g>
     </g>
    </g>
    <g id="xtick_50">
     <g id="line2d_56">
      <g>
       <use xlink:href="#m6fd03c81b9" x="530.362396" y="310.166125" style="stroke: #000000; stroke-width: 0.6"/>
      </g>
     </g>
    </g>
    <g id="xtick_51">
     <g id="line2d_57">
      <g>
       <use xlink:href="#m6fd03c81b9" x="535.102549" y="310.166125" style="stroke: #000000; stroke-width: 0.6"/>
      </g>
     </g>
    </g>
    <g id="xtick_52">
     <g id="line2d_58">
      <g>
       <use xlink:href="#m6fd03c81b9" x="567.238326" y="310.166125" style="stroke: #000000; stroke-width: 0.6"/>
      </g>
     </g>
    </g>
    <g id="text_7">
     <!-- wall time (s) -->
     <g transform="translate(277.882531 338.442687) scale(0.1 -0.1)">
      <defs>
       <path id="DejaVuSans-77" d="M 269 3500 
L 844 3500 
L 1563 769 
L 2278 3500 
L 2956 3500 
L 3675 769 
L 4391 3500 
L 4966 3500 
L 4050 0 
L 3372 0 
L 2619 2869 
L 1863 0 
L 1184 0 
L 269 3500 
z
" transform="scale(0.015625)"/>
       <path id="DejaVuSans-61" d="M 2194 1759 
Q 1497 1759 1228 1600 
Q 959 1441 959 1056 
Q 959 750 1161 570 
Q 1363 391 1709 391 
Q 2188 391 2477 730 
Q 2766 1069 2766 1631 
L 2766 1759 
L 2194 1759 
z
M 3341 1997 
L 3341 0 
L 2766 0 
L 2766 531 
Q 2569 213 2275 61 
Q 1981 -91 1556 -91 
Q 1019 -91 701 211 
Q 384 513 384 1019 
Q 384 1609 779 1909 
Q 1175 2209 1959 2209 
L 2766 2209 
L 2766 2266 
Q 2766 2663 2505 2880 
Q 2244 3097 1772 3097 
Q 1472 3097 1187 3025 
Q 903 2953 641 2809 
L 641 3341 
Q 956 3463 1253 3523 
Q 1550 3584 1831 3584 
Q 2591 3584 2966 3190 
Q 3341 2797 3341 1997 
z
" transform="scale(0.015625)"/>
       <path id="DejaVuSans-6c" d="M 603 4863 
L 1178 4863 
L 1178 0 
L 603 0 
L 603 4863 
z
" transform="scale(0.015625)"/>
       <path id="DejaVuSans-20" transform="scale(0.015625)"/>
       <path id="DejaVuSans-74" d="M 1172 4494 
L 1172 3500 
L 2356 3500 
L 2356 3053 
L 1172 3053 
L 1172 1153 
Q 1172 725 1289 603 
Q 1406 481 1766 481 
L 2356 481 
L 2356 0 
L 1766 0 
Q 1100 0 847 248 
Q 594 497 594 1153 
L 594 3053 
L 172 3053 
L 172 3500 
L 594 3500 
L 594 4494 
L 1172 4494 
z
" transform="scale(0.015625)"/>
       <path id="DejaVuSans-69" d="M 603 3500 
L 1178 3500 
L 1178 0 
L 603 0 
L 603 3500 
z
M 603 4863 
L 1178 4863 
L 1178 4134 
L 603 4134 
L 603 4863 
z
" transform="scale(0.015625)"/>
       <path id="DejaVuSans-6d" d="M 3328 2828 
Q 3544 3216 3844 3400 
Q 4144 3584 4550 3584 
Q 5097 3584 5394 3201 
Q 5691 2819 5691 2113 
L 5691 0 
L 5113 0 
L 5113 2094 
Q 5113 2597 4934 2840 
Q 4756 3084 4391 3084 
Q 3944 3084 3684 2787 
Q 3425 2491 3425 1978 
L 3425 0 
L 2847 0 
L 2847 2094 
Q 2847 2600 2669 2842 
Q 2491 3084 2119 3084 
Q 1678 3084 1418 2786 
Q 1159 2488 1159 1978 
L 1159 0 
L 581 0 
L 581 3500 
L 1159 3500 
L 1159 2956 
Q 1356 3278 1631 3431 
Q 1906 3584 2284 3584 
Q 2666 3584 2933 3390 
Q 3200 3197 3328 2828 
z
" transform="scale(0.015625)"/>
       <path id="DejaVuSans-65" d="M 3597 1894 
L 3597 1613 
L 953 1613 
Q 991 1019 1311 708 
Q 1631 397 2203 397 
Q 2534 397 2845 478 
Q 3156 559 3463 722 
L 3463 178 
Q 3153 47 2828 -22 
Q 2503 -91 2169 -91 
Q 1331 -91 842 396 
Q 353 884 353 1716 
Q 353 2575 817 3079 
Q 1281 3584 2069 3584 
Q 2775 3584 3186 3129 
Q 3597 2675 3597 1894 
z
M 3022 2063 
Q 3016 2534 2758 2815 
Q 2500 3097 2075 3097 
Q 1594 3097 1305 2825 
Q 1016 2553 972 2059 
L 3022 2063 
z
" transform="scale(0.015625)"/>
       <path id="DejaVuSans-28" d="M 1984 4856 
Q 1566 4138 1362 3434 
Q 1159 2731 1159 2009 
Q 1159 1288 1364 580 
Q 1569 -128 1984 -844 
L 1484 -844 
Q 1016 -109 783 600 
Q 550 1309 550 2009 
Q 550 2706 781 3412 
Q 1013 4119 1484 4856 
L 1984 4856 
z
" transform="scale(0.015625)"/>
       <path id="DejaVuSans-73" d="M 2834 3397 
L 2834 2853 
Q 2591 2978 2328 3040 
Q 2066 3103 1784 3103 
Q 1356 3103 1142 2972 
Q 928 2841 928 2578 
Q 928 2378 1081 2264 
Q 1234 2150 1697 2047 
L 1894 2003 
Q 2506 1872 2764 1633 
Q 3022 1394 3022 966 
Q 3022 478 2636 193 
Q 2250 -91 1575 -91 
Q 1294 -91 989 -36 
Q 684 19 347 128 
L 347 722 
Q 666 556 975 473 
Q 1284 391 1588 391 
Q 1994 391 2212 530 
Q 2431 669 2431 922 
Q 2431 1156 2273 1281 
Q 2116 1406 1581 1522 
L 1381 1569 
Q 847 1681 609 1914 
Q 372 2147 372 2553 
Q 372 3047 722 3315 
Q 1072 3584 1716 3584 
Q 2034 3584 2315 3537 
Q 2597 3491 2834 3397 
z
" transform="scale(0.015625)"/>
       <path id="DejaVuSans-29" d="M 513 4856 
L 1013 4856 
Q 1481 4119 1714 3412 
Q 1947 2706 1947 2009 
Q 1947 1309 1714 600 
Q 1481 -109 1013 -844 
L 513 -844 
Q 928 -128 1133 580 
Q 1338 1288 1338 2009 
Q 1338 2731 1133 3434 
Q 928 4138 513 4856 
z
" transform="scale(0.015625)"/>
      </defs>
      <use xlink:href="#DejaVuSans-77"/>
      <use xlink:href="#DejaVuSans-61" transform="translate(81.787109 0)"/>
      <use xlink:href="#DejaVuSans-6c" transform="translate(143.066406 0)"/>
      <use xlink:href="#DejaVuSans-6c" transform="translate(170.849609 0)"/>
      <use xlink:href="#DejaVuSans-20" transform="translate(198.632812 0)"/>
      <use xlink:href="#DejaVuSans-74" transform="translate(230.419922 0)"/>
      <use xlink:href="#DejaVuSans-69" transform="translate(269.628906 0)"/>
      <use xlink:href="#DejaVuSans-6d" transform="translate(297.412109 0)"/>
      <use xlink:href="#DejaVuSans-65" transform="translate(394.824219 0)"/>
      <use xlink:href="#DejaVuSans-20" transform="translate(456.347656 0)"/>
      <use xlink:href="#DejaVuSans-28" transform="translate(488.134766 0)"/>
      <use xlink:href="#DejaVuSans-73" transform="translate(527.148438 0)"/>
      <use xlink:href="#DejaVuSans-29" transform="translate(579.248047 0)"/>
     </g>
    </g>
   </g>
   <g id="matplotlib.axis_2">
    <g id="ytick_1">
     <g id="line2d_59">
      <path d="M 43.78125 310.166125 
L 573.80725 310.166125 
" clip-path="url(#p6eb68b7763)" style="fill: none; stroke: #b0b0b0; stroke-opacity: 0.3; stroke-width: 0.8; stroke-linecap: square"/>
     </g>
     <g id="line2d_60">
      <defs>
       <path id="ma6d9a0947f" d="M 0 0 
L -3.5 0 
" style="stroke: #000000; stroke-width: 0.8"/>
      </defs>
      <g>
       <use xlink:href="#ma6d9a0947f" x="43.78125" y="310.166125" style="stroke: #000000; stroke-width: 0.8"/>
      </g>
     </g>
     <g id="text_8">
      <!-- 0.0 -->
      <g transform="translate(20.878125 313.965344) scale(0.1 -0.1)">
       <defs>
        <path id="DejaVuSans-2e" d="M 684 794 
L 1344 794 
L 1344 0 
L 684 0 
L 684 794 
z
" transform="scale(0.015625)"/>
       </defs>
       <use xlink:href="#DejaVuSans-30"/>
       <use xlink:href="#DejaVuSans-2e" transform="translate(63.623047 0)"/>
       <use xlink:href="#DejaVuSans-30" transform="translate(95.410156 0)"/>
      </g>
     </g>
    </g>
    <g id="ytick_2">
     <g id="line2d_61">
      <path d="M 43.78125 253.725341 
L 573.80725 253.725341 
" clip-path="url(#p6eb68b7763)" style="fill: none; stroke: #b0b0b0; stroke-opacity: 0.3; stroke-width: 0.8; stroke-linecap: square"/>
     </g>
     <g id="line2d_62">
      <g>
       <use xlink:href="#ma6d9a0947f" x="43.78125" y="253.725341" style="stroke: #000000; stroke-width: 0.8"/>
      </g>
     </g>
     <g id="text_9">
      <!-- 0.2 -->
      <g transform="translate(20.878125 257.524559) scale(0.1 -0.1)">
       <use xlink:href="#DejaVuSans-30"/>
       <use xlink:href="#DejaVuSans-2e" transform="translate(63.623047 0)"/>
       <use xlink:href="#DejaVuSans-32" transform="translate(95.410156 0)"/>
      </g>
     </g>
    </g>
    <g id="ytick_3">
     <g id="line2d_63">
      <path d="M 43.78125 197.284556 
L 573.80725 197.284556 
" clip-path="url(#p6eb68b7763)" style="fill: none; stroke: #b0b0b0; stroke-opacity: 0.3; stroke-width: 0.8; stroke-linecap: square"/>
     </g>
     <g id="line2d_64">
      <g>
       <use xlink:href="#ma6d9a0947f" x="43.78125" y="197.284556" style="stroke: #000000; stroke-width: 0.8"/>
      </g>
     </g>
     <g id="text_10">
      <!-- 0.4 -->
      <g transform="translate(20.878125 201.083775) scale(0.1 -0.1)">
       <use xlink:href="#DejaVuSans-30"/>
       <use xlink:href="#DejaVuSans-2e" transform="translate(63.623047 0)"/>
       <use xlink:href="#DejaVuSans-34" transform="translate(95.410156 0)"/>
      </g>
     </g>
    </g>
    <g id="ytick_4">
     <g id="line2d_65">
      <path d="M 43.78125 140.843772 
L 573.80725 140.843772 
" clip-path="url(#p6eb68b7763)" style="fill: none; stroke: #b0b0b0; stroke-opacity: 0.3; stroke-width: 0.8; stroke-linecap: square"/>
     </g>
     <g id="line2d_66">
      <g>
       <use xlink:href="#ma6d9a0947f" x="43.78125" y="140.843772" style="stroke: #000000; stroke-width: 0.8"/>
      </g>
     </g>
     <g id="text_11">
      <!-- 0.6 -->
      <g transform="translate(20.878125 144.642991) scale(0.1 -0.1)">
       <defs>
        <path id="DejaVuSans-36" d="M 2113 2584 
Q 1688 2584 1439 2293 
Q 1191 2003 1191 1497 
Q 1191 994 1439 701 
Q 1688 409 2113 409 
Q 2538 409 2786 701 
Q 3034 994 3034 1497 
Q 3034 2003 2786 2293 
Q 2538 2584 2113 2584 
z
M 3366 4563 
L 3366 3988 
Q 3128 4100 2886 4159 
Q 2644 4219 2406 4219 
Q 1781 4219 1451 3797 
Q 1122 3375 1075 2522 
Q 1259 2794 1537 2939 
Q 1816 3084 2150 3084 
Q 2853 3084 3261 2657 
Q 3669 2231 3669 1497 
Q 3669 778 3244 343 
Q 2819 -91 2113 -91 
Q 1303 -91 875 529 
Q 447 1150 447 2328 
Q 447 3434 972 4092 
Q 1497 4750 2381 4750 
Q 2619 4750 2861 4703 
Q 3103 4656 3366 4563 
z
" transform="scale(0.015625)"/>
       </defs>
       <use xlink:href="#DejaVuSans-30"/>
       <use xlink:href="#DejaVuSans-2e" transform="translate(63.623047 0)"/>
       <use xlink:href="#DejaVuSans-36" transform="translate(95.410156 0)"/>
      </g>
     </g>
    </g>
    <g id="ytick_5">
     <g id="line2d_67">
      <path d="M 43.78125 84.402988 
L 573.80725 84.402988 
" clip-path="url(#p6eb68b7763)" style="fill: none; stroke: #b0b0b0; stroke-opacity: 0.3; stroke-width: 0.8; stroke-linecap: square"/>
     </g>
     <g id="line2d_68">
      <g>
       <use xlink:href="#ma6d9a0947f" x="43.78125" y="84.402988" style="stroke: #000000; stroke-width: 0.8"/>
      </g>
     </g>
     <g id="text_12">
      <!-- 0.8 -->
      <g transform="translate(20.878125 88.202206) scale(0.1 -0.1)">
       <defs>
        <path id="DejaVuSans-38" d="M 2034 2216 
Q 1584 2216 1326 1975 
Q 1069 1734 1069 1313 
Q 1069 891 1326 650 
Q 1584 409 2034 409 
Q 2484 409 2743 651 
Q 3003 894 3003 1313 
Q 3003 1734 2745 1975 
Q 2488 2216 2034 2216 
z
M 1403 2484 
Q 997 2584 770 2862 
Q 544 3141 544 3541 
Q 544 4100 942 4425 
Q 1341 4750 2034 4750 
Q 2731 4750 3128 4425 
Q 3525 4100 3525 3541 
Q 3525 3141 3298 2862 
Q 3072 2584 2669 2484 
Q 3125 2378 3379 2068 
Q 3634 1759 3634 1313 
Q 3634 634 3220 271 
Q 2806 -91 2034 -91 
Q 1263 -91 848 271 
Q 434 634 434 1313 
Q 434 1759 690 2068 
Q 947 2378 1403 2484 
z
M 1172 3481 
Q 1172 3119 1398 2916 
Q 1625 2713 2034 2713 
Q 2441 2713 2670 2916 
Q 2900 3119 2900 3481 
Q 2900 3844 2670 4047 
Q 2441 4250 2034 4250 
Q 1625 4250 1398 4047 
Q 1172 3844 1172 3481 
z
" transform="scale(0.015625)"/>
       </defs>
       <use xlink:href="#DejaVuSans-30"/>
       <use xlink:href="#DejaVuSans-2e" transform="translate(63.623047 0)"/>
       <use xlink:href="#DejaVuSans-38" transform="translate(95.410156 0)"/>
      </g>
     </g>
    </g>
    <g id="ytick_6">
     <g id="line2d_69">
      <path d="M 43.78125 27.962203 
L 573.80725 27.962203 
" clip-path="url(#p6eb68b7763)" style="fill: none; stroke: #b0b0b0; stroke-opacity: 0.3; stroke-width: 0.8; stroke-linecap: square"/>
     </g>
     <g id="line2d_70">
      <g>
       <use xlink:href="#ma6d9a0947f" x="43.78125" y="27.962203" style="stroke: #000000; stroke-width: 0.8"/>
      </g>
     </g>
     <g id="text_13">
      <!-- 1.0 -->
      <g transform="translate(20.878125 31.761422) scale(0.1 -0.1)">
       <use xlink:href="#DejaVuSans-31"/>
       <use xlink:href="#DejaVuSans-2e" transform="translate(63.623047 0)"/>
       <use xlink:href="#DejaVuSans-30" transform="translate(95.410156 0)"/>
      </g>
     </g>
    </g>
    <g id="text_14">
     <!-- fraction of solved formulas (ECDF) -->
     <g transform="translate(14.798438 252.049938) rotate(-90) scale(0.1 -0.1)">
      <defs>
       <path id="DejaVuSans-66" d="M 2375 4863 
L 2375 4384 
L 1825 4384 
Q 1516 4384 1395 4259 
Q 1275 4134 1275 3809 
L 1275 3500 
L 2222 3500 
L 2222 3053 
L 1275 3053 
L 1275 0 
L 697 0 
L 697 3053 
L 147 3053 
L 147 3500 
L 697 3500 
L 697 3744 
Q 697 4328 969 4595 
Q 1241 4863 1831 4863 
L 2375 4863 
z
" transform="scale(0.015625)"/>
       <path id="DejaVuSans-72" d="M 2631 2963 
Q 2534 3019 2420 3045 
Q 2306 3072 2169 3072 
Q 1681 3072 1420 2755 
Q 1159 2438 1159 1844 
L 1159 0 
L 581 0 
L 581 3500 
L 1159 3500 
L 1159 2956 
Q 1341 3275 1631 3429 
Q 1922 3584 2338 3584 
Q 2397 3584 2469 3576 
Q 2541 3569 2628 3553 
L 2631 2963 
z
" transform="scale(0.015625)"/>
       <path id="DejaVuSans-63" d="M 3122 3366 
L 3122 2828 
Q 2878 2963 2633 3030 
Q 2388 3097 2138 3097 
Q 1578 3097 1268 2742 
Q 959 2388 959 1747 
Q 959 1106 1268 751 
Q 1578 397 2138 397 
Q 2388 397 2633 464 
Q 2878 531 3122 666 
L 3122 134 
Q 2881 22 2623 -34 
Q 2366 -91 2075 -91 
Q 1284 -91 818 406 
Q 353 903 353 1747 
Q 353 2603 823 3093 
Q 1294 3584 2113 3584 
Q 2378 3584 2631 3529 
Q 2884 3475 3122 3366 
z
" transform="scale(0.015625)"/>
       <path id="DejaVuSans-6f" d="M 1959 3097 
Q 1497 3097 1228 2736 
Q 959 2375 959 1747 
Q 959 1119 1226 758 
Q 1494 397 1959 397 
Q 2419 397 2687 759 
Q 2956 1122 2956 1747 
Q 2956 2369 2687 2733 
Q 2419 3097 1959 3097 
z
M 1959 3584 
Q 2709 3584 3137 3096 
Q 3566 2609 3566 1747 
Q 3566 888 3137 398 
Q 2709 -91 1959 -91 
Q 1206 -91 779 398 
Q 353 888 353 1747 
Q 353 2609 779 3096 
Q 1206 3584 1959 3584 
z
" transform="scale(0.015625)"/>
       <path id="DejaVuSans-6e" d="M 3513 2113 
L 3513 0 
L 2938 0 
L 2938 2094 
Q 2938 2591 2744 2837 
Q 2550 3084 2163 3084 
Q 1697 3084 1428 2787 
Q 1159 2491 1159 1978 
L 1159 0 
L 581 0 
L 581 3500 
L 1159 3500 
L 1159 2956 
Q 1366 3272 1645 3428 
Q 1925 3584 2291 3584 
Q 2894 3584 3203 3211 
Q 3513 2838 3513 2113 
z
" transform="scale(0.015625)"/>
       <path id="DejaVuSans-76" d="M 191 3500 
L 800 3500 
L 1894 563 
L 2988 3500 
L 3597 3500 
L 2284 0 
L 1503 0 
L 191 3500 
z
" transform="scale(0.015625)"/>
       <path id="DejaVuSans-64" d="M 2906 2969 
L 2906 4863 
L 3481 4863 
L 3481 0 
L 2906 0 
L 2906 525 
Q 2725 213 2448 61 
Q 2172 -91 1784 -91 
Q 1150 -91 751 415 
Q 353 922 353 1747 
Q 353 2572 751 3078 
Q 1150 3584 1784 3584 
Q 2172 3584 2448 3432 
Q 2725 3281 2906 2969 
z
M 947 1747 
Q 947 1113 1208 752 
Q 1469 391 1925 391 
Q 2381 391 2643 752 
Q 2906 1113 2906 1747 
Q 2906 2381 2643 2742 
Q 2381 3103 1925 3103 
Q 1469 3103 1208 2742 
Q 947 2381 947 1747 
z
" transform="scale(0.015625)"/>
       <path id="DejaVuSans-75" d="M 544 1381 
L 544 3500 
L 1119 3500 
L 1119 1403 
Q 1119 906 1312 657 
Q 1506 409 1894 409 
Q 2359 409 2629 706 
Q 2900 1003 2900 1516 
L 2900 3500 
L 3475 3500 
L 3475 0 
L 2900 0 
L 2900 538 
Q 2691 219 2414 64 
Q 2138 -91 1772 -91 
Q 1169 -91 856 284 
Q 544 659 544 1381 
z
M 1991 3584 
L 1991 3584 
z
" transform="scale(0.015625)"/>
       <path id="DejaVuSans-45" d="M 628 4666 
L 3578 4666 
L 3578 4134 
L 1259 4134 
L 1259 2753 
L 3481 2753 
L 3481 2222 
L 1259 2222 
L 1259 531 
L 3634 531 
L 3634 0 
L 628 0 
L 628 4666 
z
" transform="scale(0.015625)"/>
       <path id="DejaVuSans-43" d="M 4122 4306 
L 4122 3641 
Q 3803 3938 3442 4084 
Q 3081 4231 2675 4231 
Q 1875 4231 1450 3742 
Q 1025 3253 1025 2328 
Q 1025 1406 1450 917 
Q 1875 428 2675 428 
Q 3081 428 3442 575 
Q 3803 722 4122 1019 
L 4122 359 
Q 3791 134 3420 21 
Q 3050 -91 2638 -91 
Q 1578 -91 968 557 
Q 359 1206 359 2328 
Q 359 3453 968 4101 
Q 1578 4750 2638 4750 
Q 3056 4750 3426 4639 
Q 3797 4528 4122 4306 
z
" transform="scale(0.015625)"/>
       <path id="DejaVuSans-44" d="M 1259 4147 
L 1259 519 
L 2022 519 
Q 2988 519 3436 956 
Q 3884 1394 3884 2338 
Q 3884 3275 3436 3711 
Q 2988 4147 2022 4147 
L 1259 4147 
z
M 628 4666 
L 1925 4666 
Q 3281 4666 3915 4102 
Q 4550 3538 4550 2338 
Q 4550 1131 3912 565 
Q 3275 0 1925 0 
L 628 0 
L 628 4666 
z
" transform="scale(0.015625)"/>
       <path id="DejaVuSans-46" d="M 628 4666 
L 3309 4666 
L 3309 4134 
L 1259 4134 
L 1259 2759 
L 3109 2759 
L 3109 2228 
L 1259 2228 
L 1259 0 
L 628 0 
L 628 4666 
z
" transform="scale(0.015625)"/>
      </defs>
      <use xlink:href="#DejaVuSans-66"/>
      <use xlink:href="#DejaVuSans-72" transform="translate(35.205078 0)"/>
      <use xlink:href="#DejaVuSans-61" transform="translate(76.318359 0)"/>
      <use xlink:href="#DejaVuSans-63" transform="translate(137.597656 0)"/>
      <use xlink:href="#DejaVuSans-74" transform="translate(192.578125 0)"/>
      <use xlink:href="#DejaVuSans-69" transform="translate(231.787109 0)"/>
      <use xlink:href="#DejaVuSans-6f" transform="translate(259.570312 0)"/>
      <use xlink:href="#DejaVuSans-6e" transform="translate(320.751953 0)"/>
      <use xlink:href="#DejaVuSans-20" transform="translate(384.130859 0)"/>
      <use xlink:href="#DejaVuSans-6f" transform="translate(415.917969 0)"/>
      <use xlink:href="#DejaVuSans-66" transform="translate(477.099609 0)"/>
      <use xlink:href="#DejaVuSans-20" transform="translate(512.304688 0)"/>
      <use xlink:href="#DejaVuSans-73" transform="translate(544.091797 0)"/>
      <use xlink:href="#DejaVuSans-6f" transform="translate(596.191406 0)"/>
      <use xlink:href="#DejaVuSans-6c" transform="translate(657.373047 0)"/>
      <use xlink:href="#DejaVuSans-76" transform="translate(685.15625 0)"/>
      <use xlink:href="#DejaVuSans-65" transform="translate(744.335938 0)"/>
      <use xlink:href="#DejaVuSans-64" transform="translate(805.859375 0)"/>
      <use xlink:href="#DejaVuSans-20" transform="translate(869.335938 0)"/>
      <use xlink:href="#DejaVuSans-66" transform="translate(901.123047 0)"/>
      <use xlink:href="#DejaVuSans-6f" transform="translate(936.328125 0)"/>
      <use xlink:href="#DejaVuSans-72" transform="translate(997.509766 0)"/>
      <use xlink:href="#DejaVuSans-6d" transform="translate(1036.873047 0)"/>
      <use xlink:href="#DejaVuSans-75" transform="translate(1134.285156 0)"/>
      <use xlink:href="#DejaVuSans-6c" transform="translate(1197.664062 0)"/>
      <use xlink:href="#DejaVuSans-61" transform="translate(1225.447266 0)"/>
      <use xlink:href="#DejaVuSans-73" transform="translate(1286.726562 0)"/>
      <use xlink:href="#DejaVuSans-20" transform="translate(1338.826172 0)"/>
      <use xlink:href="#DejaVuSans-28" transform="translate(1370.613281 0)"/>
      <use xlink:href="#DejaVuSans-45" transform="translate(1409.626953 0)"/>
      <use xlink:href="#DejaVuSans-43" transform="translate(1472.810547 0)"/>
      <use xlink:href="#DejaVuSans-44" transform="translate(1542.634766 0)"/>
      <use xlink:href="#DejaVuSans-46" transform="translate(1619.636719 0)"/>
      <use xlink:href="#DejaVuSans-29" transform="translate(1677.15625 0)"/>
     </g>
    </g>
   </g>
   <g id="line2d_71">
    <path d="M 67.873341 304.522047 
L 68.798549 304.522047 
L 68.798549 298.877968 
L 73.216485 298.877968 
L 73.216485 293.23389 
L 74.65698 293.23389 
L 74.65698 287.589811 
L 77.353041 287.589811 
L 77.353041 281.945733 
L 77.469636 281.945733 
L 77.469636 276.301654 
L 80.997255 276.301654 
L 80.997255 270.657576 
L 82.634439 270.657576 
L 82.634439 265.013498 
L 82.736713 265.013498 
L 82.736713 259.369419 
L 84.076098 259.369419 
L 84.076098 253.725341 
L 86.067867 253.725341 
L 86.067867 248.081262 
L 89.835161 248.081262 
L 89.835161 242.437184 
L 92.083128 242.437184 
L 92.083128 236.793105 
L 100.371995 236.793105 
L 100.371995 231.149027 
L 102.822157 231.149027 
L 102.822157 225.504949 
L 105.962286 225.504949 
L 105.962286 219.86087 
L 115.831345 219.86087 
L 115.831345 214.216792 
L 118.898139 214.216792 
L 118.898139 208.572713 
L 119.47622 208.572713 
L 119.47622 202.928635 
L 123.068975 202.928635 
L 123.068975 197.284556 
L 123.578174 197.284556 
L 123.578174 191.640478 
L 125.529381 191.640478 
L 125.529381 185.9964 
L 139.478385 185.9964 
L 139.478385 180.352321 
L 142.380601 180.352321 
L 142.380601 174.708243 
L 143.546977 174.708243 
L 143.546977 169.064164 
L 149.740003 169.064164 
L 149.740003 163.420086 
L 158.051286 163.420086 
L 158.051286 157.776007 
L 160.16925 157.776007 
L 160.16925 152.131929 
L 165.680299 152.131929 
L 165.680299 146.48785 
L 166.694873 146.48785 
L 166.694873 140.843772 
L 169.953879 140.843772 
L 169.953879 135.199694 
L 171.611252 135.199694 
L 171.611252 129.555615 
L 173.217443 129.555615 
L 173.217443 123.911537 
L 206.040061 123.911537 
L 206.040061 118.267458 
L 246.056129 118.267458 
L 246.056129 112.62338 
L 278.560686 112.62338 
L 278.560686 106.979301 
L 333.362608 106.979301 
L 333.362608 101.335223 
L 341.788793 101.335223 
L 341.788793 95.691145 
L 344.43872 95.691145 
L 344.43872 90.047066 
L 347.185398 90.047066 
L 347.185398 84.402988 
L 352.215747 84.402988 
L 352.215747 78.758909 
L 355.913469 78.758909 
L 355.913469 73.114831 
L 360.507134 73.114831 
L 360.507134 67.470752 
L 367.91447 67.470752 
L 367.91447 61.826674 
L 370.180552 61.826674 
L 370.180552 56.182596 
L 370.474278 56.182596 
L 370.474278 50.538517 
L 376.444117 50.538517 
L 376.444117 44.894439 
L 382.809733 44.894439 
L 382.809733 39.25036 
L 391.042554 39.25036 
L 391.042554 33.606282 
L 477.343606 33.606282 
L 477.343606 27.962203 
" clip-path="url(#p6eb68b7763)" style="fill: none; stroke: #1f77b4; stroke-width: 1.6; stroke-linecap: square"/>
   </g>
   <g id="line2d_72">
    <path d="M 78.047599 305.30054 
L 80.27986 305.30054 
L 80.27986 300.434955 
L 82.188223 300.434955 
L 82.188223 295.56937 
L 82.531904 295.56937 
L 82.531904 290.703786 
L 82.940484 290.703786 
L 82.940484 285.838201 
L 85.594949 285.838201 
L 85.594949 280.972616 
L 85.594949 280.972616 
L 85.594949 276.107031 
L 85.689978 276.107031 
L 85.689978 271.241446 
L 87.089127 271.241446 
L 87.089127 266.375861 
L 87.211173 266.375861 
L 87.211173 261.510276 
L 95.571385 261.510276 
L 95.571385 256.644692 
L 97.338808 256.644692 
L 97.338808 251.779107 
L 99.595686 251.779107 
L 99.595686 246.913522 
L 104.994817 246.913522 
L 104.994817 242.047937 
L 111.106149 242.047937 
L 111.106149 237.182352 
L 113.506367 237.182352 
L 113.506367 232.316767 
L 118.911999 232.316767 
L 118.911999 227.451182 
L 126.020177 227.451182 
L 126.020177 222.585598 
L 126.779535 222.585598 
L 126.779535 217.720013 
L 129.59639 217.720013 
L 129.59639 212.854428 
L 130.1662 212.854428 
L 130.1662 207.988843 
L 132.733405 207.988843 
L 132.733405 203.123258 
L 144.032445 203.123258 
L 144.032445 198.257673 
L 147.739071 198.257673 
L 147.739071 193.392088 
L 149.823666 193.392088 
L 149.823666 188.526504 
L 153.112168 188.526504 
L 153.112168 183.660919 
L 164.550407 183.660919 
L 164.550407 178.795334 
L 165.545679 178.795334 
L 165.545679 173.929749 
L 167.365635 173.929749 
L 167.365635 169.064164 
L 169.985055 169.064164 
L 169.985055 164.198579 
L 170.399734 164.198579 
L 170.399734 159.332995 
L 172.223874 159.332995 
L 172.223874 154.46741 
L 174.872537 154.46741 
L 174.872537 149.601825 
L 176.835265 149.601825 
L 176.835265 144.73624 
L 177.370565 144.73624 
L 177.370565 139.870655 
L 212.287873 139.870655 
L 212.287873 135.00507 
L 242.522857 135.00507 
L 242.522857 130.139485 
L 251.848364 130.139485 
L 251.848364 125.273901 
L 330.138544 125.273901 
L 330.138544 120.408316 
L 340.771516 120.408316 
L 340.771516 115.542731 
L 345.685116 115.542731 
L 345.685116 110.677146 
L 345.709854 110.677146 
L 345.709854 105.811561 
L 357.776383 105.811561 
L 357.776383 100.945976 
L 362.170271 100.945976 
L 362.170271 96.080391 
L 362.387496 96.080391 
L 362.387496 91.214807 
L 364.075783 91.214807 
L 364.075783 86.349222 
L 364.096993 86.349222 
L 364.096993 81.483637 
L 368.532933 81.483637 
L 368.532933 76.618052 
L 370.366459 76.618052 
L 370.366459 71.752467 
L 371.984723 71.752467 
L 371.984723 66.886882 
L 376.247838 66.886882 
L 376.247838 62.021297 
L 377.056908 62.021297 
L 377.056908 57.155713 
L 394.083426 57.155713 
L 394.083426 52.290128 
L 411.924085 52.290128 
L 411.924085 47.424543 
L 425.393251 47.424543 
L 425.393251 42.558958 
L 437.615966 42.558958 
L 437.615966 37.693373 
L 476.213866 37.693373 
L 476.213866 32.827788 
L 502.392159 32.827788 
L 502.392159 27.962203 
" clip-path="url(#p6eb68b7763)" style="fill: none; stroke: #ff7f0e; stroke-width: 1.6; stroke-linecap: square"/>
   </g>
   <g id="line2d_73">
    <path d="M 77.778915 305.383008 
L 80.352178 305.383008 
L 80.352178 300.59989 
L 84.987831 300.59989 
L 84.987831 295.816773 
L 85.847863 295.816773 
L 85.847863 291.033656 
L 85.847863 291.033656 
L 85.847863 286.250538 
L 86.099197 286.250538 
L 86.099197 281.467421 
L 89.231262 281.467421 
L 89.231262 276.684304 
L 89.749443 276.684304 
L 89.749443 271.901186 
L 90.48634 271.901186 
L 90.48634 267.118069 
L 93.540952 267.118069 
L 93.540952 262.334952 
L 98.826942 262.334952 
L 98.826942 257.551835 
L 99.483553 257.551835 
L 99.483553 252.768717 
L 102.635694 252.768717 
L 102.635694 247.9856 
L 109.980108 247.9856 
L 109.980108 243.202483 
L 111.474602 243.202483 
L 111.474602 238.419365 
L 115.741479 238.419365 
L 115.741479 233.636248 
L 118.198941 233.636248 
L 118.198941 228.853131 
L 128.190599 228.853131 
L 128.190599 224.070013 
L 128.97525 224.070013 
L 128.97525 219.286896 
L 130.666012 219.286896 
L 130.666012 214.503779 
L 132.149204 214.503779 
L 132.149204 209.720661 
L 133.637384 209.720661 
L 133.637384 204.937544 
L 143.97301 204.937544 
L 143.97301 200.154427 
L 150.512064 200.154427 
L 150.512064 195.371309 
L 151.182669 195.371309 
L 151.182669 190.588192 
L 155.843325 190.588192 
L 155.843325 185.805075 
L 162.754158 185.805075 
L 162.754158 181.021958 
L 163.213097 181.021958 
L 163.213097 176.23884 
L 166.817281 176.23884 
L 166.817281 171.455723 
L 168.610081 171.455723 
L 168.610081 166.672606 
L 172.605274 166.672606 
L 172.605274 161.889488 
L 174.730836 161.889488 
L 174.730836 157.106371 
L 175.79006 157.106371 
L 175.79006 152.323254 
L 177.981955 152.323254 
L 177.981955 147.540136 
L 178.536977 147.540136 
L 178.536977 142.757019 
L 213.043261 142.757019 
L 213.043261 137.973902 
L 215.294933 137.973902 
L 215.294933 133.190784 
L 251.10634 133.190784 
L 251.10634 128.407667 
L 332.213958 128.407667 
L 332.213958 123.62455 
L 340.738119 123.62455 
L 340.738119 118.841432 
L 341.212249 118.841432 
L 341.212249 114.058315 
L 345.648673 114.058315 
L 345.648673 109.275198 
L 357.154635 109.275198 
L 357.154635 104.49208 
L 362.42209 104.49208 
L 362.42209 99.708963 
L 363.150052 99.708963 
L 363.150052 94.925846 
L 366.816844 94.925846 
L 366.816844 90.142729 
L 368.307714 90.142729 
L 368.307714 85.359611 
L 370.617064 85.359611 
L 370.617064 80.576494 
L 373.577512 80.576494 
L 373.577512 75.793377 
L 384.37455 75.793377 
L 384.37455 71.010259 
L 386.925573 71.010259 
L 386.925573 66.227142 
L 394.416778 66.227142 
L 394.416778 61.444025 
L 395.424458 61.444025 
L 395.424458 56.660907 
L 400.246934 56.660907 
L 400.246934 51.87779 
L 405.376062 51.87779 
L 405.376062 47.094673 
L 412.397312 47.094673 
L 412.397312 42.311555 
L 413.41942 42.311555 
L 413.41942 37.528438 
L 472.806639 37.528438 
L 472.806639 32.745321 
L 502.576304 32.745321 
L 502.576304 27.962203 
" clip-path="url(#p6eb68b7763)" style="fill: none; stroke: #2ca02c; stroke-width: 1.6; stroke-linecap: square"/>
   </g>
   <g id="line2d_74">
    <path d="M 71.632879 305.539831 
L 75.643622 305.539831 
L 75.643622 300.913537 
L 77.778916 300.913537 
L 77.778916 296.287244 
L 79.290635 296.287244 
L 79.290635 291.66095 
L 83.075761 291.66095 
L 83.075761 287.034656 
L 84.04315 287.034656 
L 84.04315 282.408362 
L 84.501972 282.408362 
L 84.501972 277.782068 
L 85.308508 277.782068 
L 85.308508 273.155775 
L 86.193045 273.155775 
L 86.193045 268.529481 
L 86.659026 268.529481 
L 86.659026 263.903187 
L 90.514414 263.903187 
L 90.514414 259.276893 
L 97.950014 259.276893 
L 97.950014 254.650599 
L 98.918149 254.650599 
L 98.918149 250.024306 
L 105.809046 250.024306 
L 105.809046 245.398012 
L 111.307541 245.398012 
L 111.307541 240.771718 
L 115.228415 240.771718 
L 115.228415 236.145424 
L 115.891144 236.145424 
L 115.891144 231.51913 
L 125.115762 231.51913 
L 125.115762 226.892837 
L 125.705353 226.892837 
L 125.705353 222.266543 
L 125.833912 222.266543 
L 125.833912 217.640249 
L 128.377248 217.640249 
L 128.377248 213.013955 
L 130.954729 213.013955 
L 130.954729 208.387661 
L 132.387869 208.387661 
L 132.387869 203.761368 
L 132.397783 203.761368 
L 132.397783 199.135074 
L 132.71374 199.135074 
L 132.71374 194.50878 
L 144.247163 194.50878 
L 144.247163 189.882486 
L 146.765967 189.882486 
L 146.765967 185.256193 
L 147.813479 185.256193 
L 147.813479 180.629899 
L 154.743427 180.629899 
L 154.743427 176.003605 
L 162.90772 176.003605 
L 162.90772 171.377311 
L 163.083826 171.377311 
L 163.083826 166.751017 
L 164.799326 166.751017 
L 164.799326 162.124724 
L 165.965418 162.124724 
L 165.965418 157.49843 
L 171.008153 157.49843 
L 171.008153 152.872136 
L 171.618733 152.872136 
L 171.618733 148.245842 
L 175.736067 148.245842 
L 175.736067 143.619548 
L 180.880155 143.619548 
L 180.880155 138.993255 
L 182.281842 138.993255 
L 182.281842 134.366961 
L 208.903297 134.366961 
L 208.903297 129.740667 
L 243.957731 129.740667 
L 243.957731 125.114373 
L 256.98808 125.114373 
L 256.98808 120.488079 
L 353.350234 120.488079 
L 353.350234 115.861786 
L 354.449237 115.861786 
L 354.449237 111.235492 
L 364.911573 111.235492 
L 364.911573 106.609198 
L 365.071935 106.609198 
L 365.071935 101.982904 
L 367.627811 101.982904 
L 367.627811 97.35661 
L 371.45976 97.35661 
L 371.45976 92.730317 
L 371.644408 92.730317 
L 371.644408 88.104023 
L 372.183383 88.104023 
L 372.183383 83.477729 
L 377.236502 83.477729 
L 377.236502 78.851435 
L 390.630747 78.851435 
L 390.630747 74.225141 
L 393.463849 74.225141 
L 393.463849 69.598848 
L 394.71655 69.598848 
L 394.71655 64.972554 
L 395.552271 64.972554 
L 395.552271 60.34626 
L 395.601468 60.34626 
L 395.601468 55.719966 
L 397.12952 55.719966 
L 397.12952 51.093672 
L 413.146254 51.093672 
L 413.146254 46.467379 
L 413.326343 46.467379 
L 413.326343 41.841085 
L 416.683658 41.841085 
L 416.683658 37.214791 
L 419.551531 37.214791 
L 419.551531 32.588497 
L 549.715159 32.588497 
L 549.715159 27.962203 
" clip-path="url(#p6eb68b7763)" style="fill: none; stroke: #d62728; stroke-width: 1.6; stroke-linecap: square"/>
   </g>
   <g id="line2d_75">
    <path d="M 77.391943 305.614449 
L 79.327709 305.614449 
L 79.327709 301.062773 
L 81.632155 301.062773 
L 81.632155 296.511097 
L 84.141911 296.511097 
L 84.141911 291.95942 
L 86.936047 291.95942 
L 86.936047 287.407744 
L 87.875892 287.407744 
L 87.875892 282.856068 
L 87.995579 282.856068 
L 87.995579 278.304392 
L 89.086131 278.304392 
L 89.086131 273.752716 
L 91.292653 273.752716 
L 91.292653 269.20104 
L 91.648925 269.20104 
L 91.648925 264.649363 
L 96.087823 264.649363 
L 96.087823 260.097687 
L 101.37003 260.097687 
L 101.37003 255.546011 
L 101.881082 255.546011 
L 101.881082 250.994335 
L 108.53572 250.994335 
L 108.53572 246.442659 
L 110.478769 246.442659 
L 110.478769 241.890983 
L 113.916388 241.890983 
L 113.916388 237.339307 
L 116.733765 237.339307 
L 116.733765 232.78763 
L 126.881983 232.78763 
L 126.881983 228.235954 
L 130.05078 228.235954 
L 130.05078 223.684278 
L 130.500097 223.684278 
L 130.500097 219.132602 
L 131.292363 219.132602 
L 131.292363 214.580926 
L 132.615269 214.580926 
L 132.615269 210.02925 
L 132.625127 210.02925 
L 132.625127 205.477573 
L 132.71374 205.477573 
L 132.71374 200.925897 
L 134.502692 200.925897 
L 134.502692 196.374221 
L 142.926067 196.374221 
L 142.926067 191.822545 
L 150.194824 191.822545 
L 150.194824 187.270869 
L 150.239389 187.270869 
L 150.239389 182.719193 
L 153.100317 182.719193 
L 153.100317 178.167517 
L 160.149359 178.167517 
L 160.149359 173.61584 
L 160.927679 173.61584 
L 160.927679 169.064164 
L 165.81447 169.064164 
L 165.81447 164.512488 
L 167.286565 164.512488 
L 167.286565 159.960812 
L 168.726808 159.960812 
L 168.726808 155.409136 
L 174.060539 155.409136 
L 174.060539 150.85746 
L 179.923905 150.85746 
L 179.923905 146.305783 
L 181.872237 146.305783 
L 181.872237 141.754107 
L 184.072416 141.754107 
L 184.072416 137.202431 
L 210.426317 137.202431 
L 210.426317 132.650755 
L 218.119946 132.650755 
L 218.119946 128.099079 
L 256.882561 128.099079 
L 256.882561 123.547403 
L 340.404871 123.547403 
L 340.404871 118.995727 
L 354.137421 118.995727 
L 354.137421 114.44405 
L 356.97514 114.44405 
L 356.97514 109.892374 
L 359.770875 109.892374 
L 359.770875 105.340698 
L 375.148326 105.340698 
L 375.148326 100.789022 
L 375.20631 100.789022 
L 375.20631 96.237346 
L 376.431255 96.237346 
L 376.431255 91.68567 
L 384.948185 91.68567 
L 384.948185 87.133993 
L 390.57297 87.133993 
L 390.57297 82.582317 
L 391.325327 82.582317 
L 391.325327 78.030641 
L 394.106985 78.030641 
L 394.106985 73.478965 
L 394.412973 73.478965 
L 394.412973 68.927289 
L 395.317078 68.927289 
L 395.317078 64.375613 
L 395.446526 64.375613 
L 395.446526 59.823937 
L 411.214481 59.823937 
L 411.214481 55.27226 
L 412.36691 55.27226 
L 412.36691 50.720584 
L 415.548522 50.720584 
L 415.548522 46.168908 
L 416.794686 46.168908 
L 416.794686 41.617232 
L 419.045832 41.617232 
L 419.045832 37.065556 
L 441.357833 37.065556 
L 441.357833 32.51388 
L 541.234268 32.51388 
L 541.234268 27.962203 
" clip-path="url(#p6eb68b7763)" style="fill: none; stroke: #9467bd; stroke-width: 1.6; stroke-linecap: square"/>
   </g>
   <g id="patch_3">
    <path d="M 43.78125 310.166125 
L 43.78125 22.318125 
" style="fill: none; stroke: #000000; stroke-width: 0.8; stroke-linejoin: miter; stroke-linecap: square"/>
   </g>
   <g id="patch_4">
    <path d="M 573.80725 310.166125 
L 573.80725 22.318125 
" style="fill: none; stroke: #000000; stroke-width: 0.8; stroke-linejoin: miter; stroke-linecap: square"/>
   </g>
   <g id="patch_5">
    <path d="M 43.78125 310.166125 
L 573.80725 310.166125 
" style="fill: none; stroke: #000000; stroke-width: 0.8; stroke-linejoin: miter; stroke-linecap: square"/>
   </g>
   <g id="patch_6">
    <path d="M 43.78125 22.318125 
L 573.80725 22.318125 
" style="fill: none; stroke: #000000; stroke-width: 0.8; stroke-linejoin: miter; stroke-linecap: square"/>
   </g>
   <g id="text_15">
    <!-- Empirical CDF of wall time across configs -->
    <g transform="translate(185.23175 16.318125) scale(0.12 -0.12)">
     <defs>
      <path id="DejaVuSans-70" d="M 1159 525 
L 1159 -1331 
L 581 -1331 
L 581 3500 
L 1159 3500 
L 1159 2969 
Q 1341 3281 1617 3432 
Q 1894 3584 2278 3584 
Q 2916 3584 3314 3078 
Q 3713 2572 3713 1747 
Q 3713 922 3314 415 
Q 2916 -91 2278 -91 
Q 1894 -91 1617 61 
Q 1341 213 1159 525 
z
M 3116 1747 
Q 3116 2381 2855 2742 
Q 2594 3103 2138 3103 
Q 1681 3103 1420 2742 
Q 1159 2381 1159 1747 
Q 1159 1113 1420 752 
Q 1681 391 2138 391 
Q 2594 391 2855 752 
Q 3116 1113 3116 1747 
z
" transform="scale(0.015625)"/>
      <path id="DejaVuSans-67" d="M 2906 1791 
Q 2906 2416 2648 2759 
Q 2391 3103 1925 3103 
Q 1463 3103 1205 2759 
Q 947 2416 947 1791 
Q 947 1169 1205 825 
Q 1463 481 1925 481 
Q 2391 481 2648 825 
Q 2906 1169 2906 1791 
z
M 3481 434 
Q 3481 -459 3084 -895 
Q 2688 -1331 1869 -1331 
Q 1566 -1331 1297 -1286 
Q 1028 -1241 775 -1147 
L 775 -588 
Q 1028 -725 1275 -790 
Q 1522 -856 1778 -856 
Q 2344 -856 2625 -561 
Q 2906 -266 2906 331 
L 2906 616 
Q 2728 306 2450 153 
Q 2172 0 1784 0 
Q 1141 0 747 490 
Q 353 981 353 1791 
Q 353 2603 747 3093 
Q 1141 3584 1784 3584 
Q 2172 3584 2450 3431 
Q 2728 3278 2906 2969 
L 2906 3500 
L 3481 3500 
L 3481 434 
z
" transform="scale(0.015625)"/>
     </defs>
     <use xlink:href="#DejaVuSans-45"/>
     <use xlink:href="#DejaVuSans-6d" transform="translate(63.183594 0)"/>
     <use xlink:href="#DejaVuSans-70" transform="translate(160.595703 0)"/>
     <use xlink:href="#DejaVuSans-69" transform="translate(224.072266 0)"/>
     <use xlink:href="#DejaVuSans-72" transform="translate(251.855469 0)"/>
     <use xlink:href="#DejaVuSans-69" transform="translate(292.96875 0)"/>
     <use xlink:href="#DejaVuSans-63" transform="translate(320.751953 0)"/>
     <use xlink:href="#DejaVuSans-61" transform="translate(375.732422 0)"/>
     <use xlink:href="#DejaVuSans-6c" transform="translate(437.011719 0)"/>
     <use xlink:href="#DejaVuSans-20" transform="translate(464.794922 0)"/>
     <use xlink:href="#DejaVuSans-43" transform="translate(496.582031 0)"/>
     <use xlink:href="#DejaVuSans-44" transform="translate(566.40625 0)"/>
     <use xlink:href="#DejaVuSans-46" transform="translate(643.408203 0)"/>
     <use xlink:href="#DejaVuSans-20" transform="translate(700.927734 0)"/>
     <use xlink:href="#DejaVuSans-6f" transform="translate(732.714844 0)"/>
     <use xlink:href="#DejaVuSans-66" transform="translate(793.896484 0)"/>
     <use xlink:href="#DejaVuSans-20" transform="translate(829.101562 0)"/>
     <use xlink:href="#DejaVuSans-77" transform="translate(860.888672 0)"/>
     <use xlink:href="#DejaVuSans-61" transform="translate(942.675781 0)"/>
     <use xlink:href="#DejaVuSans-6c" transform="translate(1003.955078 0)"/>
     <use xlink:href="#DejaVuSans-6c" transform="translate(1031.738281 0)"/>
     <use xlink:href="#DejaVuSans-20" transform="translate(1059.521484 0)"/>
     <use xlink:href="#DejaVuSans-74" transform="translate(1091.308594 0)"/>
     <use xlink:href="#DejaVuSans-69" transform="translate(1130.517578 0)"/>
     <use xlink:href="#DejaVuSans-6d" transform="translate(1158.300781 0)"/>
     <use xlink:href="#DejaVuSans-65" transform="translate(1255.712891 0)"/>
     <use xlink:href="#DejaVuSans-20" transform="translate(1317.236328 0)"/>
     <use xlink:href="#DejaVuSans-61" transform="translate(1349.023438 0)"/>
     <use xlink:href="#DejaVuSans-63" transform="translate(1410.302734 0)"/>
     <use xlink:href="#DejaVuSans-72" transform="translate(1465.283203 0)"/>
     <use xlink:href="#DejaVuSans-6f" transform="translate(1504.146484 0)"/>
     <use xlink:href="#DejaVuSans-73" transform="translate(1565.328125 0)"/>
     <use xlink:href="#DejaVuSans-73" transform="translate(1617.427734 0)"/>
     <use xlink:href="#DejaVuSans-20" transform="translate(1669.527344 0)"/>
     <use xlink:href="#DejaVuSans-63" transform="translate(1701.314453 0)"/>
     <use xlink:href="#DejaVuSans-6f" transform="translate(1756.294922 0)"/>
     <use xlink:href="#DejaVuSans-6e" transform="translate(1817.476562 0)"/>
     <use xlink:href="#DejaVuSans-66" transform="translate(1880.855469 0)"/>
     <use xlink:href="#DejaVuSans-69" transform="translate(1916.060547 0)"/>
     <use xlink:href="#DejaVuSans-67" transform="translate(1943.84375 0)"/>
     <use xlink:href="#DejaVuSans-73" transform="translate(2007.320312 0)"/>
    </g>
   </g>
   <g id="legend_1">
    <g id="patch_7">
     <path d="M 586.40777 113.386875 
L 631.753083 113.386875 
Q 633.753083 113.386875 633.753083 111.386875 
L 633.753083 24.318125 
Q 633.753083 22.318125 631.753083 22.318125 
L 586.40777 22.318125 
Q 584.40777 22.318125 584.40777 24.318125 
L 584.40777 111.386875 
Q 584.40777 113.386875 586.40777 113.386875 
z
" style="fill: #ffffff; opacity: 0.8; stroke: #cccccc; stroke-linejoin: miter"/>
    </g>
    <g id="text_16">
     <!-- config -->
     <g transform="translate(593.779645 33.916563) scale(0.1 -0.1)">
      <use xlink:href="#DejaVuSans-63"/>
      <use xlink:href="#DejaVuSans-6f" transform="translate(54.980469 0)"/>
      <use xlink:href="#DejaVuSans-6e" transform="translate(116.162109 0)"/>
      <use xlink:href="#DejaVuSans-66" transform="translate(179.541016 0)"/>
      <use xlink:href="#DejaVuSans-69" transform="translate(214.746094 0)"/>
      <use xlink:href="#DejaVuSans-67" transform="translate(242.529297 0)"/>
     </g>
    </g>
    <g id="line2d_76">
     <path d="M 588.40777 45.094688 
L 598.40777 45.094688 
L 598.40777 45.094688 
L 608.40777 45.094688 
L 608.40777 45.094688 
" style="fill: none; stroke: #1f77b4; stroke-width: 1.6; stroke-linecap: square"/>
    </g>
    <g id="text_17">
     <!-- C0 -->
     <g transform="translate(616.40777 48.594688) scale(0.1 -0.1)">
      <use xlink:href="#DejaVuSans-43"/>
      <use xlink:href="#DejaVuSans-30" transform="translate(69.824219 0)"/>
     </g>
    </g>
    <g id="line2d_77">
     <path d="M 588.40777 59.772813 
L 598.40777 59.772813 
L 598.40777 59.772813 
L 608.40777 59.772813 
L 608.40777 59.772813 
" style="fill: none; stroke: #ff7f0e; stroke-width: 1.6; stroke-linecap: square"/>
    </g>
    <g id="text_18">
     <!-- C1 -->
     <g transform="translate(616.40777 63.272813) scale(0.1 -0.1)">
      <use xlink:href="#DejaVuSans-43"/>
      <use xlink:href="#DejaVuSans-31" transform="translate(69.824219 0)"/>
     </g>
    </g>
    <g id="line2d_78">
     <path d="M 588.40777 74.450938 
L 598.40777 74.450938 
L 598.40777 74.450938 
L 608.40777 74.450938 
L 608.40777 74.450938 
" style="fill: none; stroke: #2ca02c; stroke-width: 1.6; stroke-linecap: square"/>
    </g>
    <g id="text_19">
     <!-- C2 -->
     <g transform="translate(616.40777 77.950938) scale(0.1 -0.1)">
      <use xlink:href="#DejaVuSans-43"/>
      <use xlink:href="#DejaVuSans-32" transform="translate(69.824219 0)"/>
     </g>
    </g>
    <g id="line2d_79">
     <path d="M 588.40777 89.129063 
L 598.40777 89.129063 
L 598.40777 89.129063 
L 608.40777 89.129063 
L 608.40777 89.129063 
" style="fill: none; stroke: #d62728; stroke-width: 1.6; stroke-linecap: square"/>
    </g>
    <g id="text_20">
     <!-- C3 -->
     <g transform="translate(616.40777 92.629063) scale(0.1 -0.1)">
      <use xlink:href="#DejaVuSans-43"/>
      <use xlink:href="#DejaVuSans-33" transform="translate(69.824219 0)"/>
     </g>
    </g>
    <g id="line2d_80">
     <path d="M 588.40777 103.807188 
L 598.40777 103.807188 
L 598.40777 103.807188 
L 608.40777 103.807188 
L 608.40777 103.807188 
" style="fill: none; stroke: #9467bd; stroke-width: 1.6; stroke-linecap: square"/>
    </g>
    <g id="text_21">
     <!-- C4 -->
     <g transform="translate(616.40777 107.307188) scale(0.1 -0.1)">
      <use xlink:href="#DejaVuSans-43"/>
      <use xlink:href="#DejaVuSans-34" transform="translate(69.824219 0)"/>
     </g>
    </g>
   </g>
  </g>
 </g>
 <defs>
  <clipPath id="p6eb68b7763">
   <rect x="43.78125" y="22.318125" width="530.026" height="287.848"/>
  </clipPath>
 </defs>
</svg>
